<svg width="50" height="50" viewBox="0 0 50 50" fill="none" xmlns="http://www.w3.org/2000/svg">
<g clip-path="url(#clip0)">
<path d="M25 0L18.9638 25L25 50C38.8072 50 50 38.8071 50 25C50 11.1929 38.8072 0 25 0Z" fill="#54BBFF"/>
<path d="M0 25C0 38.8071 11.1929 50 25 50V0C11.1929 0 0 11.1929 0 25Z" fill="#8DD2FF"/>
<path d="M25 3.01807V46.9818C37.1402 46.9818 46.9819 37.1402 46.9819 24.9999C46.9819 12.8596 37.1402 3.01807 25 3.01807Z" fill="#C6E8FF"/>
<path d="M43.9638 25C43.9638 12.8598 35.4734 3.01807 25 3.01807C12.8598 3.01807 3.01807 12.8598 3.01807 25C3.01807 37.1402 12.8598 46.9819 25 46.9819C35.4734 46.9819 43.9638 37.1402 43.9638 25Z" fill="white"/>
<path d="M25 44.7183C24.5833 44.7183 24.2455 44.3806 24.2455 43.9638V25.2023L16.3737 11.5681C16.1654 11.2072 16.2891 10.7457 16.6499 10.5374C17.0107 10.3292 17.4723 10.4527 17.6806 10.8136L25.7545 24.7979V43.9639C25.7545 44.3806 25.4168 44.7183 25 44.7183Z" fill="#0C4870"/>
<path d="M25 6.79072C25.4167 6.79072 25.7545 6.45293 25.7545 6.03623C25.7545 5.61954 25.4167 5.28174 25 5.28174C24.5833 5.28174 24.2455 5.61954 24.2455 6.03623C24.2455 6.45293 24.5833 6.79072 25 6.79072Z" fill="#54BBFF"/>
<path d="M15.518 9.33101C15.9347 9.33101 16.2725 8.99321 16.2725 8.57651C16.2725 8.15982 15.9347 7.82202 15.518 7.82202C15.1013 7.82202 14.7635 8.15982 14.7635 8.57651C14.7635 8.99321 15.1013 9.33101 15.518 9.33101Z" fill="#54BBFF"/>
<path d="M8.57648 16.2727C8.99318 16.2727 9.33098 15.9349 9.33098 15.5182C9.33098 15.1015 8.99318 14.7637 8.57648 14.7637C8.15979 14.7637 7.82199 15.1015 7.82199 15.5182C7.82199 15.9349 8.15979 16.2727 8.57648 16.2727Z" fill="#54BBFF"/>
<path d="M6.03623 25.7546C6.45293 25.7546 6.79072 25.4168 6.79072 25.0001C6.79072 24.5834 6.45293 24.2456 6.03623 24.2456C5.61954 24.2456 5.28174 24.5834 5.28174 25.0001C5.28174 25.4168 5.61954 25.7546 6.03623 25.7546Z" fill="#54BBFF"/>
<path d="M8.57648 35.2365C8.99318 35.2365 9.33098 34.8987 9.33098 34.482C9.33098 34.0653 8.99318 33.7275 8.57648 33.7275C8.15979 33.7275 7.82199 34.0653 7.82199 34.482C7.82199 34.8987 8.15979 35.2365 8.57648 35.2365Z" fill="#54BBFF"/>
<path d="M15.518 42.1782C15.9347 42.1782 16.2725 41.8404 16.2725 41.4237C16.2725 41.007 15.9347 40.6692 15.518 40.6692C15.1013 40.6692 14.7635 41.007 14.7635 41.4237C14.7635 41.8404 15.1013 42.1782 15.518 42.1782Z" fill="#54BBFF"/>
<path d="M34.4819 42.1782C34.8986 42.1782 35.2364 41.8404 35.2364 41.4237C35.2364 41.007 34.8986 40.6692 34.4819 40.6692C34.0652 40.6692 33.7274 41.007 33.7274 41.4237C33.7274 41.8404 34.0652 42.1782 34.4819 42.1782Z" fill="#54BBFF"/>
<path d="M41.4235 35.2365C41.8402 35.2365 42.178 34.8987 42.178 34.482C42.178 34.0653 41.8402 33.7275 41.4235 33.7275C41.0068 33.7275 40.669 34.0653 40.669 34.482C40.669 34.8987 41.0068 35.2365 41.4235 35.2365Z" fill="#54BBFF"/>
<path d="M43.9638 25.7546C44.3805 25.7546 44.7183 25.4168 44.7183 25.0001C44.7183 24.5834 44.3805 24.2456 43.9638 24.2456C43.5471 24.2456 43.2093 24.5834 43.2093 25.0001C43.2093 25.4168 43.5471 25.7546 43.9638 25.7546Z" fill="#54BBFF"/>
<path d="M41.4235 16.2727C41.8402 16.2727 42.178 15.9349 42.178 15.5182C42.178 15.1015 41.8402 14.7637 41.4235 14.7637C41.0068 14.7637 40.669 15.1015 40.669 15.5182C40.669 15.9349 41.0068 16.2727 41.4235 16.2727Z" fill="#54BBFF"/>
<path d="M34.4819 9.33101C34.8986 9.33101 35.2364 8.99321 35.2364 8.57651C35.2364 8.15982 34.8986 7.82202 34.4819 7.82202C34.0652 7.82202 33.7274 8.15982 33.7274 8.57651C33.7274 8.99321 34.0652 9.33101 34.4819 9.33101Z" fill="#54BBFF"/>
<path d="M25 26.5091C25.8334 26.5091 26.5091 25.8335 26.5091 25C26.5091 24.1666 25.8334 23.491 25 23.491C24.1665 23.491 23.4909 24.1666 23.4909 25C23.4909 25.8335 24.1665 26.5091 25 26.5091Z" fill="#0789DE"/>
</g>
<defs>
<clipPath id="clip0">
<rect width="50" height="50" fill="white"/>
</clipPath>
</defs>
</svg>
