<svg width="50" height="50" viewBox="0 0 50 50" fill="none" xmlns="http://www.w3.org/2000/svg">
<path d="M40.625 50H9.375C4.19688 50 0 45.8031 0 40.625V9.375C0 4.19688 4.19688 0 9.375 0H40.625C45.8031 0 50 4.19688 50 9.375V40.625C50 45.8031 45.8031 50 40.625 50Z" fill="#F5E6FE"/>
<path d="M22.3953 28.1249C22.0375 28.1249 21.7031 27.9406 21.5125 27.6359L19.2141 23.9593H17.7078C17.1328 23.9593 16.6656 23.4921 16.6656 22.9171C16.6656 22.3421 17.1328 21.8749 17.7078 21.8749H19.7906C20.15 21.8749 20.4828 22.0593 20.6734 22.364L22.2922 24.9562L25.6281 18.2843C25.9813 17.5781 27.1391 17.5781 27.4922 18.2843L30.3297 23.9593H32.55C33.125 23.9593 33.5922 24.4265 33.5922 25.0015C33.5922 25.5765 33.125 26.0437 32.55 26.0437H29.6875C29.2922 26.0437 28.9328 25.8203 28.7563 25.4687L26.5625 21.0796L23.3281 27.5499C23.1594 27.8859 22.8219 28.1062 22.4453 28.1249C22.4281 28.1249 22.4125 28.1249 22.3953 28.1249Z" fill="#D9A4FC"/>
<path d="M34.375 13.5422H15.625C13.9016 13.5422 12.5 14.9438 12.5 16.6672V33.3344C12.5 35.0579 13.9016 36.4594 15.625 36.4594H34.375C36.0984 36.4594 37.5 35.0579 37.5 33.3344V16.6672C37.5 14.9438 36.0984 13.5422 34.375 13.5422ZM18.75 34.375H16.6672C16.0906 34.375 15.625 33.9094 15.625 33.3329C15.625 32.7563 16.0922 32.2907 16.6672 32.2907H18.75C19.325 32.2907 19.7922 32.7579 19.7922 33.3329C19.7922 33.9079 19.325 34.375 18.75 34.375ZM26.0422 34.375H23.9594C23.3844 34.375 22.9172 33.9079 22.9172 33.3329C22.9172 32.7579 23.3844 32.2907 23.9594 32.2907H26.0422C26.6172 32.2907 27.0844 32.7579 27.0844 33.3329C27.0844 33.9079 26.6172 34.375 26.0422 34.375ZM32.2922 34.375H30.2094C29.6344 34.375 29.1672 33.9079 29.1672 33.3329C29.1672 32.7579 29.6344 32.2907 30.2094 32.2907H32.2922C32.8672 32.2907 33.3344 32.7579 33.3344 33.3329C33.3344 33.9079 32.8672 34.375 32.2922 34.375ZM35.4172 30.2079H14.5828V16.6657C14.5828 16.0922 15.05 15.625 15.625 15.625H34.375C34.95 15.625 35.4172 16.0922 35.4172 16.6672V30.2079Z" fill="#BE63F9"/>
</svg>
