<svg width="50" height="50" viewBox="0 0 50 50" fill="none" xmlns="http://www.w3.org/2000/svg">
<path d="M40.625 50H9.375C4.19688 50 0 45.8031 0 40.625V9.375C0 4.19688 4.19688 0 9.375 0H40.625C45.8031 0 50 4.19688 50 9.375V40.625C50 45.8031 45.8031 50 40.625 50Z" fill="#E3F8FA"/>
<path d="M25.2609 34.3751H24.7406C23.7359 34.3751 22.9172 33.5579 22.9172 32.5517V30.2079H20.5734C19.5687 30.2079 18.75 29.3907 18.75 28.3845V27.8642C18.75 26.8595 19.5672 26.0407 20.5734 26.0407H22.9172V23.697C22.9172 22.6923 23.7344 21.8735 24.7406 21.8735H25.2609C26.2656 21.8735 27.0844 22.6907 27.0844 23.697V26.0407H29.4281C30.4328 26.0407 31.2516 26.8579 31.2516 27.8642V28.3845C31.2516 29.3892 30.4344 30.2079 29.4281 30.2079H27.0844V32.5517C27.0828 33.5579 26.2656 34.3751 25.2609 34.3751Z" fill="#8CE1EB"/>
<path d="M31.25 37.5H18.75C17.0266 37.5 15.625 36.0984 15.625 34.375V18.75C15.625 17.0266 17.0266 15.625 18.75 15.625H20.4516C21.0266 15.625 21.4937 16.0922 21.4937 16.6672C21.4937 17.2422 21.0281 17.7094 20.4516 17.7094H18.75C18.175 17.7094 17.7078 18.1766 17.7078 18.7516V34.3766C17.7078 34.9516 18.175 35.4187 18.75 35.4187H31.25C31.825 35.4187 32.2922 34.9516 32.2922 34.3766V18.75C32.2922 18.175 31.825 17.7078 31.25 17.7078H29.5484C28.9734 17.7078 28.5062 17.2406 28.5062 16.6656C28.5062 16.0906 28.9734 15.625 29.5484 15.625H31.25C32.9734 15.625 34.375 17.0266 34.375 18.75V34.375C34.375 36.0984 32.9734 37.5 31.25 37.5Z" fill="#26C6DA"/>
<path d="M28.3859 19.2703H21.6156C20.6109 19.2703 19.7922 18.4531 19.7922 17.4469V15.3641C19.7922 14.9328 20.1422 14.5828 20.5734 14.5828H22.2437C22.5844 13.3828 23.6906 12.5 25 12.5C26.3094 12.5 27.4156 13.3828 27.7562 14.5828H29.4266C29.8578 14.5828 30.2078 14.9328 30.2078 15.3641V17.4469C30.2078 18.4531 29.3906 19.2703 28.3859 19.2703Z" fill="#26C6DA"/>
</svg>
