<svg width="50" height="50" viewBox="0 0 50 50" fill="none" xmlns="http://www.w3.org/2000/svg">
<path d="M40.625 50H9.375C4.19693 50 0 45.8031 0 40.625V9.375C0 4.19693 4.19693 0 9.375 0H40.625C45.8031 0 50 4.19693 50 9.375V40.625C50 45.8031 45.8031 50 40.625 50Z" fill="#FFF9DD"/>
<path d="M29.3408 24.9783L22.5266 31.7921C22.4579 31.8611 22.4094 31.947 22.3873 32.0423L21.2517 36.8611C21.2109 37.0358 21.2624 37.2204 21.3905 37.3486C21.4905 37.447 21.6236 37.5 21.7594 37.5C21.7983 37.5 21.8391 37.4954 21.8781 37.4859L26.6968 36.3499C26.7906 36.3281 26.8765 36.2797 26.9455 36.211L33.7593 29.3968L29.3408 24.9783Z" fill="#FFD200"/>
<path d="M36.8889 23.3219L35.4156 21.8483C34.6283 21.061 33.2561 21.061 32.4688 21.8483L30.4436 23.8736L34.864 28.2936L36.8889 26.2688C37.2829 25.8751 37.5 25.3517 37.5 24.7952C37.5 24.2375 37.2829 23.7156 36.8889 23.3219Z" fill="#FFD200"/>
<path d="M31.25 16.6672C30.6751 16.6672 30.2078 17.1345 30.2078 17.7094V19.7922C30.2078 20.3671 30.6751 20.8344 31.25 20.8344C31.8249 20.8344 32.2922 20.3671 32.2922 19.7922V17.7094C32.2922 17.133 31.8249 16.6672 31.25 16.6672Z" fill="#FFE777"/>
<path d="M27.6764 21.875H23.4375V18.75C23.4375 18.1751 22.9702 17.7078 22.3953 17.7078C21.8204 17.7078 21.3547 18.1751 21.3547 18.75V21.875H14.5828V17.4484C14.5828 16.8736 14.1155 16.4062 13.5406 16.4062C12.9658 16.4062 12.5 16.872 12.5 17.4484V31.7719C12.5 33.2062 13.6688 34.375 15.1047 34.375H19.6251C20.2 34.375 20.6673 33.9077 20.6673 33.3328C20.6673 32.7579 20.2 32.2906 19.6251 32.2906H15.1047C14.817 32.2906 14.5844 32.058 14.5844 31.7703V29.1656H22.3969C22.9717 29.1672 23.4375 28.6999 23.4375 28.125V23.9578H27.6764C28.2516 23.9578 28.7186 23.4905 28.7186 22.9156C28.7186 22.3408 28.2532 21.875 27.6764 21.875ZM14.5828 23.9578H21.3531V27.0828H14.5828V23.9578Z" fill="#FFE777"/>
<path d="M29.9484 12.5H14.8438C13.5502 12.5 12.5 13.5502 12.5 14.8438V18.75H32.2922V14.8438C32.2922 13.5502 31.2424 12.5 29.9484 12.5Z" fill="#FFD200"/>
</svg>
