<svg id="Capa_1" enable-background="new 0 0 512 512" height="512" viewBox="0 0 512 512" width="512" xmlns="http://www.w3.org/2000/svg"><path d="m57.621 381.661 30.287 62.335c42.528 35.581 97.305 57.004 157.092 57.004 89.37 0 167.552-47.859 210.347-119.339z" fill="#74727f"/><path d="m167.25 381.661c68.536 0 78.839 90.924 26.235 113.896 16.611 3.557 33.841 5.443 51.515 5.443 89.37 0 167.552-47.859 210.347-119.339z" fill="#5f5e6a"/><path d="m245 11c-48.95 0-94.542 14.363-132.806 39.093l-92.153 254.221 37.58 77.347h397.726c21.997-36.743 34.653-79.722 34.653-125.661 0-135.31-109.69-245-245-245z" fill="#9f66d8"/><path d="m232.881 323.141c-4.658 0-8.434-3.776-8.434-8.434v-173.571c0-7.954-6.471-14.425-14.426-14.425h-14.963c-4.658 0-8.435-3.776-8.435-8.434s3.776-8.435 8.435-8.435h14.963c17.256 0 31.295 14.039 31.295 31.294v173.571c-.001 4.658-3.777 8.434-8.435 8.434z" fill="#56b1fc"/><path d="m241.291 140.182c-.508-16.815-14.335-30.34-31.27-30.34h-14.963c-4.658 0-8.435 3.776-8.435 8.434s3.776 8.435 8.435 8.435h14.963c7.922 0 14.369 6.42 14.421 14.331 3.412-6.715 12.781-7.176 16.849-.86z" fill="#319df5"/><path d="m299.231 341.365h139.451v54.382h-139.451z"/><path d="m15.295 341.365c1.772 4.767 3.692 9.461 5.748 14.082l27.877 40.3h59.953v-54.382z" fill="#21212b"/><path d="m429.442 141.186c-2.26-16.347-16.374-29.043-33.316-29.043h-91.033c-6.88 0-12.509 5.629-12.509 12.509v16.535h136.858z" fill="#eeefeb"/><path d="m380.449 124.651c0-6.88 5.629-12.509 12.509-12.509h-87.866c-6.88 0-12.509 5.629-12.509 12.509v16.535h104.4c-9.131 0-16.534-7.403-16.534-16.535z" fill="#d6d6d0"/><path d="m29.684 284.348h-28.042c1.212 10.515 3.086 20.826 5.586 30.892h22.456c4.836 0 8.755-4.348 8.755-9.711v-11.471c0-5.362-3.92-9.71-8.755-9.71z" fill="#363540"/><path d="m10.616 305.53v-11.471c0-5.363 3.92-9.711 8.755-9.711h-17.729c1.212 10.515 3.086 20.826 5.586 30.892h12.144c-4.836 0-8.756-4.347-8.756-9.71z" fill="#21212b"/><path d="m128.923 284.348h-40.101c-4.836 0-8.756 4.348-8.756 9.711v11.47c0 5.363 3.92 9.711 8.756 9.711h40.101c4.836 0 8.756-4.348 8.756-9.711v-11.47c0-5.363-3.92-9.711-8.756-9.711z" fill="#363540"/><path d="m108.873 305.53v-11.471c0-5.363 3.92-9.711 8.756-9.711h-28.807c-4.836 0-8.756 4.348-8.756 9.711v11.471c0 5.363 3.92 9.711 8.756 9.711h28.806c-4.835-.001-8.755-4.348-8.755-9.711z" fill="#21212b"/><path d="m132.459 76.001c9.999 0 19.522 2.122 28.162 5.917-1.787-17.804-16.924-31.825-35.178-31.825h-13.248c-11.875 7.675-23.039 16.354-33.382 25.908z" fill="#d6d6d0"/><path d="m42.713 329.587c-10.476 0-20.386 2.458-29.199 6.812 2.255 6.493 4.785 12.856 7.556 19.088l4.809 6.952c5.064-2.571 10.777-4.04 16.834-4.04 20.594 0 37.348 16.754 37.348 37.348 0 10.873-4.683 20.662-12.124 27.493l4.797 6.935c4.865 4.811 9.922 9.429 15.174 13.823 12.888-12.08 20.964-29.236 20.964-48.251.001-36.48-29.679-66.16-66.159-66.16z" fill="#21212b"/><path d="m272.519 404.308v-62.943h-158.362l23.213 62.943c2.364 6.41-.159 13.42-5.675 16.971l.575 1.405h148.779c-7.444-2.719-11.27-10.947-8.53-18.376z" fill="#eeefeb"/><path d="m272.519 404.307v-62.943h-37.156v69.785c0 5.369-3.537 9.947-8.394 11.533h54.081c-7.445-2.717-11.271-10.945-8.531-18.375z" fill="#d6d6d0"/><path d="m0 256c0 10.451.658 20.747 1.928 30.854h130.53c38.797 0 70.54-31.743 70.54-70.54v-73.146c0-38.797-31.743-70.54-70.54-70.54h-49.915c-50.625 44.883-82.543 110.395-82.543 183.372z" fill="#eeefeb"/><path d="m40.782 216.314v-73.146c0-14.121 4.221-27.297 11.441-38.359-32.71 41.639-52.223 94.133-52.223 151.191 0 10.451.658 20.747 1.928 30.853h109.393c-38.796 0-70.539-31.742-70.539-70.539z" fill="#d6d6d0"/><path d="m97.891 314.707c4.944.876 9.146 4.304 10.926 9.131l6.464 17.527h157.237v-26.658z" fill="#d6d6d0"/><path d="m103.892 314.707h-6c1.29.229 2.528.635 3.687 1.191.72-.478 1.497-.874 2.313-1.191z" fill="#c6c6c1"/><path d="m227.586 314.707c4.535 1.762 7.776 6.168 7.776 11.306v15.352h37.156v-26.658z" fill="#c6c6c1"/><path d="m111.066 323.837c-2.073-5.624-7.432-9.358-13.425-9.358-11.749 0-48.817 0-90.6 0 2.396 9.783 5.379 19.335 8.911 28.617h68.342c2.027 0 3.839 1.263 4.54 3.165l25.059 67.948c2.739 7.427 10.974 11.205 18.375 8.474 7.414-2.735 11.209-10.961 8.474-18.375z" fill="#4b4a55"/><path d="m490.69 348.376c-4.838 0-8.773-3.757-8.773-8.375v-42.743c0-4.618 3.935-8.375 8.773-8.375h8.184v-25.325c0-5.94-1.018-11.836-3.008-17.433l-30.972-87.073c-4.29-12.061-15.706-20.117-28.507-20.117h-145.412c-11.435 0-20.705 9.27-20.705 20.705v244.666l.853-.064 28.824-78.157c2.073-5.624 7.432-9.358 13.425-9.358h111.291c5.993 0 11.352 3.734 13.425 9.358l18.542 50.276h42.245v-27.987h-8.185z" fill="#319df5"/><path d="m380.449 301.211v-147.144c0-6.932 4.439-12.861 10.609-15.13h-100.083c-11.435 0-20.705 9.27-20.705 20.705v244.666l.853-.064 28.824-78.157c2.073-5.624 7.432-9.358 13.425-9.358h78.873c-6.781-1.908-11.796-8.149-11.796-15.518z" fill="#0c88ed"/><path d="m328.275 161.429h-29.382c-3.386 0-6.131 2.745-6.131 6.131v52.214c0 3.386 2.745 6.132 6.131 6.132h29.382c3.386 0 6.131-2.745 6.131-6.132v-52.214c0-3.386-2.745-6.131-6.131-6.131z" fill="#21212b"/><path d="m473.919 251.497c-2.602-7.45-9.615-26.755-30.216-84.906-1.098-3.087-4.038-5.162-7.317-5.162h-72.575c-3.238 0-5.864 2.625-5.864 5.864v52.749c0 3.238 2.625 5.864 5.864 5.864h36.39c2.378 0 4.521 1.436 5.424 3.637l8.777 21.378c1.671 4.071 5.636 6.729 10.037 6.729h45.104c3.19 0 5.428-3.141 4.376-6.153z" fill="#363540"/><path d="m363.811 161.429c-3.238 0-5.864 2.625-5.864 5.864v52.749c0 3.238 2.625 5.864 5.864 5.864h16.639v-64.477z" fill="#21212b"/><path d="m382.362 262.363h-12.998c-4.658 0-8.435-3.776-8.435-8.435 0-4.658 3.776-8.435 8.435-8.435h12.998c4.658 0 8.435 3.776 8.435 8.435s-3.777 8.435-8.435 8.435z" fill="#56b1fc"/><path d="m42.713 358.399c-6.57 0-12.745 1.711-18.114 4.702 10.96 22.512 25.266 43.091 42.272 61.095 8.062-6.856 13.19-17.062 13.19-28.449 0-20.594-16.754-37.348-37.348-37.348z" fill="#d6d6d0"/><path d="m42.713 349.964c-7.839 0-15.222 1.983-21.68 5.47 2.294 5.16 4.764 10.224 7.398 15.189 4.217-2.406 9.089-3.789 14.282-3.789 15.943 0 28.913 12.971 28.913 28.914 0 8.922-4.063 16.91-10.435 22.219 3.722 4.22 7.583 8.313 11.584 12.268 9.623-8.399 15.721-20.74 15.721-34.486-.001-25.247-20.538-45.785-45.783-45.785z" fill="#eeefeb"/><path d="m369.017 461.907c-36.48 0-66.16-29.68-66.16-66.16s29.68-66.16 66.16-66.16 66.16 29.679 66.16 66.16c0 36.48-29.68 66.16-66.16 66.16zm0-103.508c-20.594 0-37.348 16.755-37.348 37.348 0 20.594 16.755 37.348 37.348 37.348 20.594 0 37.348-16.754 37.348-37.348s-16.755-37.348-37.348-37.348z" fill="#21212b"/><path d="m414.776 443.461c-10.082-.008-13.203-4.999-14.081-9.015-.587-2.683-2.545-4.839-5.181-5.612-2.103-.617-3.613-1.623-4.699-2.789-6.14 4.43-13.667 7.05-21.799 7.05-20.594 0-37.348-16.754-37.348-37.348 0-10.681 4.514-20.321 11.725-27.135-1.163-1.49-1.737-3.245-1.998-4.848-.435-2.676-2.329-4.89-4.903-5.741-6.443-2.131-7.885-6.969-7.989-10.563-.034-1.167-.37-2.264-.922-3.237-15.063 12.137-24.725 30.719-24.725 51.524 0 36.48 29.68 66.16 66.16 66.16 17.745-.001 33.867-7.036 45.76-18.446z"/><circle cx="369.017" cy="395.747" fill="#d6d6d0" r="37.348"/><path d="m369.017 433.095c8.132 0 15.659-2.62 21.799-7.05-1.337-1.435-2.029-3.112-2.376-4.608-.585-2.528-2.387-4.577-4.838-5.43-23.801-8.272-29.66-28.943-31.102-38.659-.402-2.707-2.282-4.982-4.882-5.836-1.915-.629-3.268-1.675-4.224-2.9-7.212 6.814-11.725 16.454-11.725 27.135-.001 20.594 16.754 37.348 37.348 37.348z" fill="#c6c6c1"/><path d="m369.017 441.529c-25.245 0-45.783-20.538-45.783-45.783s20.538-45.783 45.783-45.783 45.783 20.538 45.783 45.783c-.001 25.246-20.538 45.783-45.783 45.783zm0-74.696c-15.943 0-28.914 12.971-28.914 28.914s12.971 28.914 28.914 28.914 28.913-12.971 28.913-28.914-12.97-28.914-28.913-28.914z" fill="#eeefeb"/><path d="m323.234 395.747c0 25.245 20.538 45.783 45.783 45.783 11.267 0 21.59-4.099 29.575-10.874-.849-.832-1.889-1.473-3.077-1.821-4.693-1.376-6.447-4.687-7.074-7.397-.263-1.135-.781-2.164-1.483-3.041-4.934 3.917-11.166 6.264-17.941 6.264-15.943 0-28.914-12.971-28.914-28.914 0-8.96 4.097-16.981 10.516-22.288-.811-.874-1.826-1.56-3-1.946-4.243-1.394-5.747-4.827-6.222-7.749-.202-1.243-.73-2.379-1.485-3.333-10.18 8.404-16.678 21.115-16.678 35.316z" fill="#d6d6d0"/><path d="m499.853 287.759h-9.162c-5.444 0-9.898 4.275-9.898 9.5v42.742c0 5.225 4.454 9.5 9.898 9.5h9.162c5.444 0 9.898-4.275 9.898-9.5v-42.742c0-5.225-4.454-9.5-9.898-9.5z" fill="#ffc743"/><path d="m499.853 318.63h-9.162c-5.444 0-9.898-4.275-9.898-9.5v30.871c0 5.225 4.454 9.5 9.898 9.5h9.162c5.444 0 9.898-4.275 9.898-9.5v-30.871c0 5.225-4.454 9.5-9.898 9.5z" fill="#fbb031"/><path d="m97.642 314.479c-11.749 0-48.817 0-90.6 0 2.396 9.783 5.379 19.335 8.911 28.617h68.342c-8.318-24.467 13.347-28.617 13.347-28.617z" fill="#363540"/><path d="m498.874 374.114h-69.598l16 43.266h53.598c7.219 0 13.126-5.907 13.126-13.127v-17.013c0-7.219-5.907-13.126-13.126-13.126z" fill="#363540"/><path d="m484.907 404.253v-17.013c0-7.22 5.907-13.127 13.126-13.127h-68.757l16 43.266h52.757c-7.219.001-13.126-5.906-13.126-13.126z" fill="#21212b"/><path d="m467.764 404.308-29.677-80.47c-2.073-5.624-7.432-9.358-13.425-9.358-29.972 0-93.832 0-111.291 0-5.993 0-11.351 3.734-13.425 9.358l-29.677 80.47c-2.814 7.629 1.286 16.119 9.129 18.6 7.345 2.323 15.194-1.848 17.859-9.076l24.92-67.57c.701-1.902 2.513-3.165 4.54-3.165h84.597c2.027 0 3.839 1.263 4.541 3.165l25.059 67.948c2.739 7.427 10.974 11.205 18.375 8.474 7.415-2.736 11.21-10.962 8.475-18.376z" fill="#4b4a55"/><path d="m279.398 422.907c7.345 2.323 15.194-1.848 17.859-9.076l24.92-67.57c.701-1.902 2.513-3.165 4.54-3.165h.087c-.64-.747-1.436-1.371-2.355-1.82-14.341-7.002-12.743-20.176-11.599-24.983.141-.593.193-1.198.179-1.801-5.854.139-11.051 3.828-13.084 9.345l-29.677 80.47c-2.813 7.63 1.287 16.12 9.13 18.6z" fill="#363540"/></svg>