<svg id="Capa_1" enable-background="new 0 0 512 512" height="512" viewBox="0 0 512 512" width="512" xmlns="http://www.w3.org/2000/svg"><path d="m64.3 378.622-4.217 38.085c44.916 51.642 111.101 84.293 184.917 84.293 90.632 0 169.763-49.217 212.143-122.378z" fill="#74727f"/><path d="m199.71 378.622c74.963 0 82.001 106.101 15.223 120.528 9.855 1.207 19.885 1.85 30.067 1.85 90.632 0 169.763-49.217 212.143-122.378z" fill="#5f5e6a"/><path d="m245 11c-54.387 0-104.626 17.732-145.275 47.716l-35.425 319.906h392.843c20.892-36.065 32.857-77.945 32.857-122.622 0-135.31-109.69-245-245-245z" fill="#ffc743"/><path d="m0 256c0 10.284.643 20.418 1.873 30.37h197.881v-219.394c0-5-4.053-9.053-9.053-9.053h-89.889c-61.098 44.552-100.812 116.671-100.812 198.077z" fill="#eeefeb"/><path d="m70.035 268.444v-183.542c0-.128.008-.253.01-.38-43.322 44.188-70.045 104.707-70.045 171.478 0 10.284.643 20.418 1.873 30.37h86.089c-9.901 0-17.927-8.026-17.927-17.926z" fill="#d6d6d0"/><path d="m44.222 284.004c14.386 0 26.74 9.236 30.042 22.459l19.87 79.618h105.62v-102.077z" fill="#363540"/><path d="m141.049 284.004c6.281 0 11.372 5.091 11.372 11.372v79.333c0 6.281-5.092 11.372-11.372 11.372h58.706v-102.077z" fill="#21212b"/><path d="m81.396 335.043 12.738 53.378h105.62v-53.378z" fill="#21212b"/><path d="m152.421 374.71c0 6.281-5.092 11.372-11.372 11.372h58.706v-51.039h-47.333v39.667z"/><path d="m326.331 312.041h116.698v26.409h-116.698z"/><path d="m385.292 454.077c-39.159 0-71.018-31.859-71.018-71.018s31.859-71.018 71.018-71.018 71.018 31.859 71.018 71.018-31.859 71.018-71.018 71.018zm0-111.109c-22.106 0-40.091 17.985-40.091 40.091s17.985 40.091 40.091 40.091 40.091-17.985 40.091-40.091-17.985-40.091-40.091-40.091z" fill="#21212b"/><path d="m385.292 454.077c-39.159 0-71.018-31.859-71.018-71.018s31.859-71.018 71.018-71.018 71.018 31.859 71.018 71.018-31.859 71.018-71.018 71.018zm0-111.109c-22.106 0-40.091 17.985-40.091 40.091s17.985 40.091 40.091 40.091 40.091-17.985 40.091-40.091-17.985-40.091-40.091-40.091z" fill="#21212b"/><path d="m425.371 441.647c-12.974-1.129-14.632-9.136-14.471-13.799.066-1.92-1.046-3.641-2.768-4.491-2.365-1.168-3.83-2.801-4.723-4.552-5.446 2.771-11.599 4.345-18.116 4.345-22.106 0-40.091-17.985-40.091-40.091 0-16.22 9.688-30.211 23.577-36.517-.88-2.315-.658-4.682-.189-6.509.503-1.961-.303-4.008-1.98-5.142-11.304-7.65-4.802-18.495-4.534-18.932-27.788 9.644-47.8 36.071-47.8 67.1 0 39.159 31.859 71.018 71.018 71.018 14.858 0 28.661-4.596 40.077-12.43z"/><ellipse cx="385.292" cy="383.059" fill="#d6d6d0" rx="40.091" ry="40.091" transform="matrix(.383 -.924 .924 .383 -116.054 592.432)"/><path d="m403.408 418.805c-1.215-2.382-1.364-4.981-1.221-6.929.139-1.893-.835-3.678-2.5-4.589-27.727-15.179-25.726-41.145-23.924-50.592.376-1.97-.541-3.981-2.279-4.981-2.583-1.485-4-3.312-4.706-5.172-13.888 6.306-23.577 20.297-23.577 36.517 0 22.106 17.985 40.091 40.091 40.091 6.517 0 12.67-1.573 18.116-4.345z" fill="#c6c6c1"/><path d="m385.292 432.021c-26.998 0-48.962-21.964-48.962-48.961s21.964-48.961 48.962-48.961c26.997 0 48.961 21.964 48.961 48.961s-21.964 48.961-48.961 48.961zm0-80.182c-17.215 0-31.221 14.005-31.221 31.22s14.006 31.22 31.221 31.22 31.22-14.005 31.22-31.22-14.006-31.22-31.22-31.22z" fill="#eeefeb"/><path d="m410.183 425.197c-.485-.774-1.192-1.416-2.052-1.84-5.582-2.757-6.193-8.101-5.945-11.481.06-.815-.097-1.604-.416-2.318-4.787 2.988-10.433 4.721-16.48 4.721-17.215 0-31.22-14.005-31.22-31.22 0-13.696 8.869-25.352 21.163-29.548-.406-.73-.995-1.362-1.75-1.796-5.798-3.334-5.74-8.386-4.896-11.681.256-.998.169-2.017-.195-2.928-18.695 6.897-32.063 24.893-32.063 45.953 0 26.997 21.964 48.961 48.962 48.961 9.084.001 17.593-2.495 24.892-6.823z" fill="#d6d6d0"/><path d="m500.519 253.642-16.562-13.398c-5.507-4.454-12.375-6.885-19.457-6.885h-75.318c-8.766 0-17.109-3.77-22.901-10.349l-57.275-75.4c-5.793-6.579-14.135-10.349-22.901-10.349h-76.624c-6.678 0-12.092 5.414-12.092 12.092v240.277h92.87l19.219-79.617c3.191-13.224 15.14-22.461 29.056-22.461h93.517c13.916 0 25.865 9.237 29.056 22.462l12.829 49.598h12.045c5.596 0 10.512 2.884 13.363 7.242l12.656-21.725v-67.434c0-9.339-4.219-18.179-11.481-24.053z" fill="#319df5"/><path d="m257.709 137.261h-48.229c-6.678 0-12.092 5.414-12.092 12.092v240.277h60.32v-221.166l-.111-.128c-7.728-8.933-7.68-22.198.112-31.075z" fill="#0c88ed"/><path d="m485.979 391.547h-21.068c-8.819 0-15.967-7.148-15.967-15.967s7.148-15.967 15.967-15.967h21.068c8.819 0 15.967 7.149 15.967 15.967.001 8.818-7.148 15.967-15.967 15.967z" fill="#5f5e6a"/><path d="m512 290.716v-13.021c0-5.926-1.704-11.647-4.8-16.541h-18.123c-8.136 0-13.455 8.527-9.878 15.833l3.704 7.566c1.846 3.771 5.679 6.162 9.878 6.162h19.219z" fill="#eeefeb"/><path d="m501.633 284.553-3.704-7.566c-3.489-7.128 1.495-15.393 9.293-15.795-.008-.012-.014-.026-.023-.038h-18.123c-8.136 0-13.455 8.527-9.878 15.833l3.704 7.566c1.846 3.771 5.679 6.162 9.878 6.162h18.73c-4.198.001-8.031-2.39-9.877-6.162z" fill="#d6d6d0"/><path d="m248.838 272.39h-14.587c-4.899 0-8.871-3.971-8.871-8.871 0-4.899 3.971-8.871 8.871-8.871h14.587c4.899 0 8.871 3.972 8.871 8.871 0 4.9-3.971 8.871-8.871 8.871z" fill="#56b1fc"/><path d="m291.07 168.464h-52.163c-4.531 0-8.204 3.673-8.204 8.204v48.489c0 4.531 3.673 8.204 8.204 8.204h94.449c4.546 0 7.128-5.203 4.378-8.823l-40.131-52.831c-1.552-2.044-3.969-3.243-6.533-3.243z" fill="#363540"/><path d="m257.709 168.464h-18.803c-4.531 0-8.204 3.673-8.204 8.204v48.489c0 4.531 3.673 8.204 8.204 8.204h18.803z" fill="#21212b"/><path d="m292.009 233.359h41.346c4.546 0 7.128-5.203 4.378-8.823l-19.609-25.815s5.227 25.514-26.115 34.638z" fill="#21212b"/><path d="m357.78 211.718h-16.534c-4.53 0-8.236 3.706-8.236 8.236v26.811c0 4.53 3.706 8.236 8.236 8.236h16.534c10.229 0 18.598-8.369 18.598-18.598v-6.087c0-10.229-8.369-18.598-18.598-18.598z" fill="#eeefeb"/><path d="m348.138 236.403v-6.087c0-8.683 6.04-16.006 14.12-18.026-1.438-.36-2.933-.572-4.478-.572h-16.534c-4.53 0-8.236 3.706-8.236 8.236v26.811c0 4.53 3.706 8.236 8.236 8.236h16.534c1.545 0 3.04-.212 4.478-.572-8.08-2.02-14.12-9.343-14.12-18.026z" fill="#d6d6d0"/><path d="m6.447 312.041c1.941 8.296 4.329 16.418 7.091 24.366l1.057 2.044h43.384v-26.409h-51.532z" fill="#5f5e6a"/><path d="m6.545 312.444c1.917 8.13 4.25 16.098 6.956 23.892l6.513 12.594c11.446 7.066 19.094 19.719 19.094 34.13 0 .88-.032 1.753-.091 2.618l6.49 12.55c4.831 6.758 9.99 13.265 15.464 19.49 5.762-10.259 9.064-22.077 9.064-34.658 0-36.617-27.857-66.844-63.49-70.616z"/><path d="m13.471 336.277c7.735 22.31 18.594 43.16 32.069 62.015 1.575-4.798 2.439-9.915 2.439-15.233 0-21.968-14.544-40.601-34.508-46.782z" fill="#eeefeb"/><path d="m78.38 306.465c-3.191-13.224-15.14-22.461-29.056-22.461h-47.722c1.238 10.876 3.181 21.538 5.796 31.934h40.417l21.69 89.858c1.765 7.313 8.303 12.224 15.508 12.224 1.241 0 2.5-.146 3.76-.449 8.572-2.069 13.844-10.696 11.774-19.268z" fill="#4b4a55"/><path d="m299.282 418.017h-214.255c-8.819 0-15.967-7.149-15.967-15.967 0-8.819 7.148-15.967 15.967-15.967h214.254c8.819 0 15.967 7.148 15.967 15.967.001 8.818-7.148 15.967-15.966 15.967z" fill="#4b4a55"/><path d="m299.282 386.082h-44.333c8.819 0 15.967 7.148 15.967 15.967s-7.148 15.967-15.967 15.967h44.333c8.819 0 15.967-7.149 15.967-15.967s-7.148-15.967-15.967-15.967z" fill="#363540"/><path d="m299.294 418.02c-1.241 0-2.499-.146-3.76-.449-8.572-2.069-13.844-10.695-11.774-19.268l22.168-91.837c3.191-13.224 15.14-22.461 29.056-22.461h100.613c13.916 0 25.865 9.237 29.056 22.462l15.779 65.367c2.07 8.573-3.203 17.199-11.774 19.268-8.574 2.066-17.199-3.203-19.268-11.774l-15.301-63.388h-97.597l-21.69 89.858c-1.764 7.311-8.302 12.222-15.508 12.222z" fill="#4b4a55"/><g fill="#363540"><path d="m334.985 284.004c-13.916 0-25.865 9.237-29.056 22.461l-22.168 91.837c-2.07 8.573 3.203 17.2 11.774 19.268 1.26.304 2.519.449 3.759.449 7.205 0 13.744-4.911 15.509-12.224l21.69-89.858c-20.535-14.227-1.508-31.933-1.508-31.933z"/><path d="m67.916 290.311c-5.133-3.983-11.614-6.307-18.592-6.307h-47.722c1.238 10.876 3.181 21.538 5.796 31.934h40.417c-3.293-25.041 20.063-25.626 20.101-25.627z"/></g></svg>