<svg id="Capa_1" enable-background="new 0 0 512 512" height="512" viewBox="0 0 512 512" width="512" xmlns="http://www.w3.org/2000/svg"><path d="m454.283 383.438c22.658-37.13 35.717-80.758 35.717-127.438 0-135.31-109.69-245-245-245-69.574 0-132.37 29.004-176.968 75.576l-23.653 296.862z" fill="#67e5ee"/><path d="m44.379 383.438-.944 11.843c44.22 63.871 117.999 105.719 201.565 105.719 88.63 0 166.264-47.065 209.283-117.563h-409.904z" fill="#74727f"/><path d="m197.307 383.438c71.569 0 78.663 100.621 15.856 115.506 10.422 1.353 21.047 2.056 31.837 2.056 88.63 0 166.264-47.065 209.283-117.563h-256.976z" fill="#5f5e6a"/><path d="m38.301 124.422c-14.508 22.743-25.359 48.043-31.74 75.07h456.593c-8.296-16.185-18.305-31.544-29.933-45.789l-23.903-29.281z" fill="#4b4a55"/><path d="m302.8 188.665c-2.491-1.469-5.688-4.485-5.688-10.283 0-9.5 0-37 0-37s.022-4.504 4.106-6.474c1.542-.744 2.072-2.714.946-4.003-1.45-1.659-2.801-3.896-2.839-6.483h-261.024c-14.508 22.743-25.359 48.043-31.74 75.07h294.472c.012-2.154.683-4.564 2.55-7.133.881-1.213.508-2.933-.783-3.694z" fill="#363540"/><path d="m6.561 199.492c-2.385 10.102-4.151 20.444-5.242 30.987h370.865c55.484 0 102.629 35.685 119.751 85.353h.148l-.739-12.794c-2.098-36.301-11.783-71.542-28.189-103.546z" fill="#eeefeb"/><path d="m405.036 199.492h-163.706v162.592h181.284v-99.197c-.001-22.345-6.091-44.252-17.578-63.395z" fill="#d6d6d0"/><path d="m343.461 320.215c-44.234-1.5-47.788-25.211-47.788-25.211s0-49.289 0-67.08 10.02-18.852 10.02-18.852l-6.837-9.58h-57.526v162.592h119.347z" fill="#c6c6c1"/><path d="m354.465 85.461h-285.345c-9.221 9.507-17.675 19.759-25.269 30.658h365.466l-6.166-7.553c-11.935-14.622-29.811-23.105-48.686-23.105z" fill="#eeefeb"/><path d="m305.693 113.543v-15.661s-.08-12.421 9.92-12.421h-246.493c-9.221 9.507-17.675 19.759-25.269 30.658h260.175c.221-.185.45-.37.689-.556.623-.481.978-1.234.978-2.02z" fill="#d6d6d0"/><path d="m491.935 313.277c-17.122-49.668-64.266-85.353-119.751-85.353h-370.573c-1.052 9.215-1.611 18.579-1.611 28.076 0 38.003 8.654 73.985 24.097 106.084h470.658z" fill="#af7fdf"/><path d="m422.613 262.886c0-8.66-.926-17.252-2.715-25.645-14.728-5.997-30.831-9.318-47.714-9.318h-130.854v134.16h181.284v-99.197z" fill="#9f66d8"/><path d="m343.461 320.215c-44.234-1.5-47.788-25.211-47.788-25.211s0-49.289 0-67.08h-54.343v134.16h119.347z" fill="#9945db"/><ellipse cx="459.505" cy="310.022" fill="#eeefeb" rx="18.38" ry="29.235"/><path d="m461.105 310.022c0-10.285 3.342-19.323 8.39-24.534-2.877-2.97-6.305-4.701-9.99-4.701-10.151 0-18.38 13.089-18.38 29.235s8.229 29.234 18.38 29.234c3.685 0 7.114-1.731 9.99-4.701-5.048-5.21-8.39-14.248-8.39-24.533z" fill="#d6d6d0"/><path d="m295.745 272.389h-17.699c-5.291 0-9.581-4.289-9.581-9.581s4.289-9.581 9.581-9.581h17.699c5.291 0 9.581 4.289 9.581 9.581s-4.29 9.581-9.581 9.581z" fill="#af7fdf"/><path d="m24.097 362.084c5.813 12.083 12.597 23.608 20.235 34.49h234.921c-.784-4.034-1.208-8.195-1.208-12.455 0-7.731 1.361-15.149 3.844-22.035z" fill="#eeefeb"/><path d="m281.889 362.084h-44.583c9.101 0 16.341 7.733 15.614 16.805-.138 1.725-.209 3.469-.209 5.23.007 6.85-5.592 12.455-12.443 12.455h38.984c-.784-4.034-1.208-8.195-1.208-12.455.001-7.731 1.362-15.149 3.845-22.035z" fill="#d6d6d0"/><path d="m494.755 362.084h-90.269c2.483 6.886 3.844 14.304 3.844 22.035 0 4.26-.424 8.421-1.208 12.455h87.633c9.525 0 17.245-7.721 17.245-17.245s-7.721-17.245-17.245-17.245z" fill="#eeefeb"/><path d="m469.086 396.574c-7.516-2.141-13.025-9.042-13.025-17.245s5.509-15.105 13.025-17.245h-64.601c2.483 6.886 3.844 14.304 3.844 22.035 0 4.26-.424 8.421-1.208 12.455z" fill="#d6d6d0"/><path d="m426.909 362.084c-9.782-36.942-43.429-64.177-83.448-64.177s-73.666 27.235-83.448 64.177z" fill="#af7fdf"/><path d="m328.977 356.488c-5.518-2.917-5.656-7.883-4.92-11.321.444-2.074-.559-4.149-2.46-5.09-5.888-2.918-6.478-8.467-6.082-12.248.222-2.12-.999-4.145-3.02-4.823-7.256-2.437-8.112-8.208-7.725-12.212.117-1.209-.231-2.363-.908-3.266-21.383 11.065-37.557 30.795-43.849 54.557h71.14c.041-.317.084-.62.127-.908.286-1.895-.609-3.793-2.303-4.689z" fill="#9f66d8"/><path d="m343.188 317.7c-36.623 0-66.419 29.796-66.419 66.419s29.796 66.419 66.419 66.419 66.42-29.796 66.42-66.419-29.797-66.419-66.42-66.419zm0 103.915c-20.674 0-37.495-16.82-37.495-37.495s16.82-37.495 37.495-37.495 37.495 16.82 37.495 37.495-16.821 37.495-37.495 37.495z" fill="#21212b"/><path d="m390.766 430.398c-10.771-.006-13.516-6.103-14.144-10.204-.314-2.052-1.941-3.612-3.999-3.879-3.071-.398-5.226-1.276-6.735-2.379-6.306 4.813-14.173 7.679-22.7 7.679-20.674 0-37.495-16.82-37.495-37.495 0-13.836 7.539-25.936 18.719-32.434-.898-2.236-.763-4.612-.355-6.519.444-2.074-.559-4.149-2.46-5.09-5.888-2.918-6.478-8.467-6.082-12.248.139-1.325-.286-2.613-1.118-3.558-22.245 10.745-37.628 33.534-37.628 59.848 0 36.624 29.796 66.419 66.419 66.419 18.641.001 35.503-7.729 47.578-20.14z"/><ellipse cx="343.188" cy="384.12" fill="#d6d6d0" rx="37.495" ry="37.495" transform="matrix(.972 -.234 .234 .972 -80.204 90.751)"/><path d="m362.564 407.888c-.141-1.931-1.41-3.608-3.278-4.116-30.196-8.204-29.403-33.325-28.006-42.596.285-1.894-.61-3.792-2.303-4.688-2.458-1.299-3.844-3.006-4.565-4.802-11.18 6.497-18.719 18.598-18.719 32.434 0 20.675 16.82 37.495 37.495 37.495 8.527 0 16.394-2.867 22.7-7.679-2.437-1.779-3.184-4.146-3.324-6.048z" fill="#c6c6c1"/><path d="m343.188 430.398c-25.518 0-46.279-20.761-46.279-46.279s20.761-46.279 46.279-46.279 46.278 20.76 46.278 46.279-20.76 46.279-46.278 46.279zm0-74.989c-15.832 0-28.711 12.88-28.711 28.711s12.88 28.711 28.711 28.711 28.711-12.88 28.711-28.711c-.001-15.832-12.88-28.711-28.711-28.711z" fill="#eeefeb"/><path d="m372.622 416.314c-8.026-1.042-9.832-5.346-10.058-8.426-.054-.738-.275-1.438-.629-2.051-5.034 4.352-11.586 6.993-18.747 6.993-15.832 0-28.711-12.879-28.711-28.71 0-11.378 6.652-21.23 16.271-25.874-.404-.729-.999-1.35-1.771-1.758-5.518-2.917-5.656-7.883-4.92-11.321.225-1.05.076-2.099-.37-3.002-15.798 7.373-26.778 23.402-26.778 41.955 0 25.518 20.761 46.278 46.279 46.278 12.405 0 23.677-4.916 31.995-12.89-.691-.634-1.574-1.066-2.561-1.194z" fill="#d6d6d0"/><path d="m463.154 189.911h-52.741l-34.501-55.908h33.406c5.291 0 9.581-4.289 9.581-9.58s-4.289-9.581-9.581-9.581c-139.755 0-252.555 0-364.58 0h258.591c-.159.273-.357.524-.612.722-8.041 6.232-5.494 11.973-2.552 15.341.803.919.752 2.178.105 3.098h53.127l34.501 55.908h-86.03c.318.784.253 1.709-.284 2.447-5.275 7.258-1.121 13.293 1.026 15.651.281.308.461.677.568 1.063h159.976c5.291 0 9.581-4.289 9.581-9.58-.001-5.292-4.29-9.581-9.581-9.581z" fill="#74727f"/><path d="m304.61 208.009c-2.147-2.358-6.301-8.393-1.026-15.651.537-.738.602-1.664.284-2.447h-52.958v-55.908h51.359c.647-.92.698-2.179-.105-3.098-2.942-3.368-5.489-9.109 2.552-15.341.255-.198.453-.449.612-.722-94.356 0-177.692 0-260.591 0-4.367 6.183-8.46 12.574-12.25 19.161h31.865v55.908h-55.324c-1.757 6.288-3.263 12.68-4.52 19.161h300.669c-.106-.386-.286-.755-.567-1.063zm-156.559-18.098h-64.537v-55.908h64.537zm83.698 0h-64.537v-55.908h64.537z" fill="#4b4a55"/></svg>