<svg width="50" height="50" viewBox="0 0 50 50" fill="none" xmlns="http://www.w3.org/2000/svg">
<path d="M40.625 50H9.375C4.19693 50 0 45.8031 0 40.625V9.375C0 4.19693 4.19693 0 9.375 0H40.625C45.8031 0 50 4.19693 50 9.375V40.625C50 45.8031 45.8031 50 40.625 50Z" fill="#FFE6E2"/>
<path d="M33.3328 25C33.3328 22.8954 32.542 20.9751 31.25 19.5061V14.3234C31.25 13.3171 30.4329 12.5 29.4266 12.5H20.5719C19.5671 12.5 18.75 13.3171 18.75 14.3234V19.508C17.458 20.9766 16.6672 22.8954 16.6672 25.0015C16.6672 27.108 17.458 29.0264 18.75 30.4955V35.6796C18.75 36.6829 19.5671 37.5 20.5734 37.5H29.4281C30.4329 37.5 31.25 36.6829 31.25 35.6766V30.492C32.542 29.0249 33.3328 27.1046 33.3328 25ZM25 18.75C28.447 18.75 31.25 21.553 31.25 25C31.25 28.447 28.447 31.25 25 31.25C21.553 31.25 18.75 28.447 18.75 25C18.75 21.553 21.553 18.75 25 18.75Z" fill="#FC573B"/>
<path d="M26.6079 28.0795C26.8108 28.2829 27.0782 28.3843 27.3438 28.3843C27.6093 28.3843 27.8767 28.2829 28.0796 28.0795C28.4859 27.6733 28.4859 27.0141 28.0796 26.6063L26.0406 24.567V21.0937C26.0406 20.5188 25.5749 20.0515 24.9985 20.0515C24.4236 20.0515 23.9563 20.5188 23.9563 21.0937V24.9999C23.9563 25.2765 24.0658 25.5405 24.2611 25.7358L26.6079 28.0795Z" fill="#FD907E"/>
</svg>
