<?xml version="1.0" encoding="utf-8"?><svg viewBox="0 0 512 512" xmlns="http://www.w3.org/2000/svg" xmlns:xlink="http://www.w3.org/1999/xlink"><style>:root>svg{display:none}:root>svg:target{display:block}</style><svg fill="none" viewBox="0 0 24 24" id="arrowForward" xmlns="http://www.w3.org/2000/svg"><path d="M12 4l-1.41 1.41L16.17 11H4v2h12.17l-5.58 5.59L12 20l8-8-8-8z" fill="#8CE1EB"/></svg><svg viewBox="0 0 512 512" id="bike" xmlns="http://www.w3.org/2000/svg"><path d="M252.227 351.429h218.492C483.134 322.1 490 289.852 490 256c0-135.31-109.69-245-245-245C117.309 11 12.452 108.691 1.047 233.408z" fill="#ffc743"/><path d="M477.057 334.778H12.943a243.455 243.455 0 0011.994 29.004h440.126a243.455 243.455 0 0011.994-29.004z" fill="#eeefeb"/><path d="M62.495 361.533v57.9C107.351 469.494 172.492 501 245 501c97.522 0 181.73-56.984 221.16-139.467z" fill="#74727f"/><path d="M247.909 361.533H62.495v57.9C107.351 469.494 172.492 501 245 501c.986 0 1.969-.015 2.952-.027-54.658-27.01-53.56-112.187-.043-139.44z" fill="#5f5e6a"/><path d="M408.824 262.174c-56.982 0-103.176 46.193-103.176 103.176 0 56.982 46.193 103.175 103.176 103.175S512 422.332 512 365.35c0-56.983-46.193-103.176-103.176-103.176zm0 167.249c-35.387 0-64.074-28.687-64.074-64.074s28.687-64.074 64.074-64.074 64.074 28.687 64.074 64.074c0 35.388-28.687 64.074-64.074 64.074z" fill="#21212b"/><path d="M466.158 451.136c-14.719-2.394-17.137-12.5-17.24-18.452-.043-2.476-1.566-4.642-3.867-5.557-3.117-1.238-5.02-3.132-6.166-5.191a63.779 63.779 0 01-30.061 7.487c-35.387 0-64.074-28.687-64.074-64.074 0-22.232 11.327-41.814 28.52-53.305l-21.35-32.766c-27.882 18.471-46.272 50.121-46.272 86.07 0 56.982 46.193 103.175 103.176 103.175 21.217.002 40.936-6.406 57.334-17.387z"/><path d="M408.824 439.44c-40.854 0-74.09-33.237-74.09-74.09s33.237-74.09 74.09-74.09 74.09 33.237 74.09 74.09-33.237 74.09-74.09 74.09z" fill="#4b4a55"/><path d="M408.824 439.44a73.645 73.645 0 0038.463-10.789 6.176 6.176 0 00-2.237-1.523c-6.541-2.599-7.779-8.076-7.754-11.936.015-2.407-1.476-4.585-3.716-5.467-8.043-3.166-9.332-9.562-9.179-13.881.087-2.447-1.361-4.633-3.617-5.586-10.695-4.514-7.897-17.412-7.897-17.412l-45.068-69.165c-19.927 13.294-33.085 35.971-33.085 61.67 0 40.852 33.237 74.089 74.09 74.089z" fill="#363540"/><circle cx="408.824" cy="365.35" fill="#d6d6d0" transform="rotate(-20.05 408.22 364.907)" r="54.058"/><path d="M408.824 419.408c10.02 0 19.406-2.75 27.46-7.521a5.88 5.88 0 00-2.704-2.163c-8.043-3.166-9.332-9.562-9.179-13.881.087-2.447-1.361-4.633-3.617-5.586-10.695-4.514-7.897-17.412-7.897-17.412l-34.138-52.391c-14.453 9.713-23.984 26.212-23.984 44.896.001 29.807 24.251 54.058 54.059 54.058z" fill="#c6c6c1"/><path d="M61.423 332.3l-47.497 5.267a243.74 243.74 0 005.488 14.12l14.052 27.964-.001.001a244.944 244.944 0 007.934 12.656h69.948zM408.824 334.575c-16.97 0-30.775 13.805-30.775 30.775 0 16.969 13.805 30.774 30.775 30.774 16.969 0 30.774-13.805 30.774-30.774.001-16.97-13.805-30.775-30.774-30.775z" fill="#4b4a55"/><path d="M408.824 396.124a30.59 30.59 0 0014.603-3.692 5.969 5.969 0 00-2.643-2.175c-10.695-4.514-7.897-17.412-7.897-17.412l-21.428-32.886c-8.09 5.551-13.41 14.859-13.41 25.391.001 16.969 13.806 30.774 30.775 30.774z" fill="#363540"/><path d="M248.666 172.528l-5.437 9.855a14.133 14.133 0 00-1.631 8.716l3.925 29.052a99.817 99.817 0 01-1.338 34.376l-21.986 102.112c-4.45 20.667-23.024 35.668-44.166 35.668H41.398a246.226 246.226 0 0022.096 28.254c25.525-.007 62.088-.011 114.538.004 34.366 0 64.557-24.383 71.792-57.979l21.726-100.907a55.398 55.398 0 0115.684-28.199l9.314-8.99.032-.034-38.489-59.252c-4.036.924-7.42 3.69-9.425 7.324z" fill="#eeefeb"/><path d="M179.044 97.964l-13.546-27.342-35.258 34.29c-6.154 5.984-6.29 15.824-.306 21.977 5.988 6.158 15.829 6.286 21.977.306l28.274-27.497a8.757 8.757 0 01-1.141-1.734z" fill="#363540"/><path d="M289.55 149.912c0 19.329 30.441 34.998 67.991 34.998v-69.996c-37.55 0-67.991 15.669-67.991 34.998z" fill="#d6d6d0"/><path d="M289.55 149.912c0 19.329 30.441 34.998 67.991 34.998v-32.16c-30.488 0-56.287-5.583-64.914-13.276-1.998 3.297-3.077 6.803-3.077 10.438z" fill="#c6c6c1"/><path d="M357.542 194.926c-5.531 0-10.016-4.484-10.016-10.016v-69.996c0-5.532 4.484-10.016 10.016-10.016 5.531 0 10.016 4.484 10.016 10.016v69.996c-.001 5.532-4.485 10.016-10.016 10.016z" fill="#eeefeb"/><path d="M357.542 162.192c-5.531 0-10.016-4.484-10.016-10.016v32.734c0 5.531 4.484 10.016 10.016 10.016 5.531 0 10.016-4.484 10.016-10.016v-32.734c-.001 5.532-4.485 10.016-10.016 10.016z" fill="#d6d6d0"/><path d="M469.36 258.604c-23.282-15.505-61.992-32.085-120.428-8.398l27.332 42.077c17.684-7.484 36.449-9.001 54.009-5.399 16.058 3.294 32.528-3.223 41.439-16.983 2.445-3.776 1.393-8.804-2.352-11.297z" fill="#eb5793"/><path d="M328.638 267.324a19.267 19.267 0 01-2.197-1.022c-16.825 17.097-28.534 39.08-32.908 63.376 0 0-4.707 18.606-14.101 34.041-4.267 7.011 1.314 15.894 9.491 15.187 16.715-1.444 31.016-12.9 35.665-29.02 5.034-17.455 15.153-32.906 28.775-44.498z" fill="#e7387f"/><path d="M353.363 305.388l-24.725-38.064a19.267 19.267 0 01-2.197-1.022c-14.443 14.677-25.101 32.961-30.6 53.212 9.315-.942 26.182.754 30.863 23.941 5.496-14.817 14.736-27.92 26.659-38.067z" fill="#e20a62"/><path d="M205.923 238.044a46.254 46.254 0 01-7.198.572H144.69v153.691h33.343c21.142 0 39.716-15.001 44.166-35.668l18.744-87.054z" fill="#363540"/><path d="M232.78 307.498l8.163-37.913-35.02-31.541a46.254 46.254 0 01-7.198.572h-42.426z" fill="#4b4a55"/><path d="M91.317 236.497c-3.788 0-7.34-1.552-9.925-4.271l-4.256 2.567c.356 4.945-2.092 9.749-6.428 12.314L52.16 258.084c8.019.772 14.311 7.544 14.311 15.762v46.892c0 4.563-1.951 8.669-5.048 11.562l5.757 24.339c4.45 20.668 23.024 35.668 44.166 35.668h33.343v-155.81z" fill="#21212b"/><path d="M66.471 273.846v25.114l69.354-62.464H91.317c-3.788 0-7.34-1.552-9.925-4.271l-4.256 2.567c.356 4.945-2.092 9.749-6.428 12.314L52.16 258.084c8.019.772 14.311 7.544 14.311 15.762z" fill="#4b4a55"/><ellipse cx="144.69" cy="292.89" fill="#eeefeb" rx="45.212" ry="27.813"/><path d="M54.518 256.325L1.997 287.408a243.46 243.46 0 0012.326 51.289h36.309c9.877 0 17.959-8.081 17.959-17.959v-46.893c0-8.542-6.049-15.73-14.073-17.52z" fill="#eeefeb"/><path d="M14.323 338.697h36.309c-31.298-20.156-27.495-45.382-22.874-57.987a11.102 11.102 0 00-.287-8.378L1.997 287.408a243.46 243.46 0 0012.326 51.289z" fill="#d6d6d0"/><path d="M417.455 351.345l-68.159-104.93c.05 6.161-2.931 12.216-8.481 15.821-5.348 3.476-11.797 3.847-17.269 1.598l67.843 104.443c4.674 7.196 14.301 9.243 21.499 4.567 7.198-4.675 9.243-14.3 4.567-21.499zM240.918 82.852a49.116 49.116 0 00-35.34-22.053 49.304 49.304 0 00-14.319.361l14.043 28.346c4.872 1.366 9.117 4.426 11.919 8.738l27.307 42.04c.518-5.496 3.437-10.713 8.427-13.953 4.493-2.918 9.768-3.644 14.596-2.477z" fill="#eeefeb"/><path d="M236.049 76.54a49.1 49.1 0 00-30.471-15.741 49.304 49.304 0 00-14.319.361l14.043 28.346c4.872 1.366 9.117 4.426 11.919 8.738-3.63-25.129 18.754-21.715 18.828-21.704zM316.842 259.997l-71.586-110.203c-5.738-8.834-3.229-20.647 5.606-26.386 8.833-5.736 20.649-3.228 26.385 5.605l71.586 110.204c5.738 8.834 3.229 20.647-5.606 26.386-8.852 5.753-20.66 3.209-26.385-5.606z" fill="#d6d6d0"/><path d="M303.956 205.328c7.177-4.661 16.136-4.361 22.877.021l-49.586-76.335c-5.736-8.833-17.552-11.342-26.385-5.605-8.834 5.738-11.344 17.552-5.606 26.386l49.36 75.987c-1.066-7.802 2.299-15.881 9.34-20.454z" fill="#c6c6c1"/><path d="M204.07 84.166l-15.875-32.043c-3.809-7.692-13.137-10.841-20.825-7.026-7.692 3.81-10.838 13.134-7.027 20.825l15.875 32.043a8.797 8.797 0 0011.788 3.977l12.087-5.988a8.798 8.798 0 003.977-11.788z" fill="#21212b"/><path d="M58.408 221.445c-12.194 4.329-32.366 9.867-57.251 10.728A247.527 247.527 0 000 256c0 11.545.817 22.898 2.362 34.018l69.426-41.088c7.235-4.282 9.719-13.64 5.394-20.99-3.768-6.404-11.772-8.98-18.774-6.495z" fill="#363540"/><path d="M24.344 268.348c-19.409-15.125-5.078-37.656-5.078-37.656l-.004-.001a194.304 194.304 0 01-18.105 1.482A247.527 247.527 0 000 256c0 11.545.817 22.898 2.362 34.018l25.867-15.309c-.487-2.467-1.812-4.745-3.885-6.361z" fill="#21212b"/><g fill="#4b4a55"><path d="M199.801 343.076l-14.072-12.674c-4.111-3.702-4.442-10.035-.739-14.145 3.7-4.11 10.034-4.442 14.145-.739l14.072 12.674c4.111 3.702 4.441 10.035.739 14.145-3.702 4.111-10.036 4.441-14.145.739zM180.598 374.913l-21.285-19.171c-4.111-3.702-4.441-10.035-.739-14.145 3.7-4.11 10.034-4.442 14.145-.739l21.285 19.171c4.111 3.702 4.441 10.035.74 14.145-3.703 4.11-10.038 4.44-14.146.739z"/><circle cx="106.587" cy="351.448" r="26.686"/></g><path d="M106.587 324.761c-14.738 0-26.686 11.948-26.686 26.686 0 9.763 5.245 18.297 13.069 22.949l13.618-19.814v-16.849c-6.894-6.892-.001-12.972-.001-12.972z" fill="#363540"/><path d="M96.694 341.454a37.678 37.678 0 01-25.535 9.94H19.266a243.979 243.979 0 0014.199 28.257h37.693a65.866 65.866 0 0044.639-17.377c5.749-5.275 6.134-14.213.858-19.962-5.274-5.749-14.213-6.136-19.961-.858z" fill="#d6d6d0"/><path d="M235.029 167.549c-6.697-8.876-15.837-15.729-28.306-18.224-40.877-8.178-104.77 42.999-126.497 61.734a15.9 15.9 0 00-4.951 16.192 15.918 15.918 0 0015.366 11.763h107.883c36.774.001 58.652-42.11 36.505-71.465z" fill="#eb5793"/><path d="M162.353 166.126c4.917-6.517 11.087-11.993 18.817-15.61-38.245 9.043-83.377 45.395-100.944 60.543a15.9 15.9 0 00-4.951 16.192 15.918 15.918 0 0015.366 11.763h94.899c-29.026-9.727-43.263-46.278-23.187-72.888z" fill="#e7387f"/><path d="M197.316 387.922c-5.902 2.814-12.457 4.385-19.283 4.385H41.398a246.226 246.226 0 0022.096 28.254c25.525-.007 62.088-.011 114.538.004 11.062 0 21.685-2.538 31.256-7.085-19.954-6.021-11.973-25.556-11.972-25.558z" fill="#d6d6d0"/><path d="M19.266 351.394a243.979 243.979 0 0014.199 28.257h37.693c2.542 0 5.064-.163 7.562-.449-25.628-8.814-12.781-27.808-12.781-27.808z" fill="#c6c6c1"/><path d="M144.69 265.077c-24.97 0-45.212 12.452-45.212 27.813s20.242 27.813 45.212 27.813c-10.942-10.942 0-18.474 0-18.474V283.55c-11.336-8.866 0-18.473 0-18.473z" fill="#d6d6d0"/><path d="M156.559 283.55h-23.738a9.339 9.339 0 00-9.339 9.339 9.339 9.339 0 009.339 9.34h23.738a9.339 9.339 0 009.339-9.34 9.34 9.34 0 00-9.339-9.339z" fill="#c6c6c1"/></svg><svg fill="none" viewBox="0 0 18 18" id="call" xmlns="http://www.w3.org/2000/svg"><path fill-rule="evenodd" clip-rule="evenodd" d="M1 0h3.5c.55 0 1 .45 1 1 0 1.25.2 2.45.57 3.57.11.35.03.74-.25 1.02l-2.2 2.2c1.44 2.83 3.76 5.14 6.59 6.59l2.2-2.2c.2-.19.45-.29.71-.29.1 0 .21.01.31.05 1.12.37 2.33.57 3.57.57.55 0 1 .45 1 1V17c0 .55-.45 1-1 1C7.61 18 0 10.39 0 1c0-.55.45-1 1-1zm2.54 2c.06.89.21 1.76.45 2.59l-1.2 1.2c-.41-1.2-.67-2.47-.76-3.79h1.51zm9.86 12.02c.85.24 1.72.39 2.6.45v1.49c-1.32-.09-2.59-.35-3.8-.75l1.2-1.19z" fill="#EB3723"/></svg><svg viewBox="0 0 512 512" id="carBlue" xmlns="http://www.w3.org/2000/svg"><path d="M295.003 234.343l194.845 13.442C485.514 116.28 377.559 11 245 11c-78.134 0-147.723 36.577-192.584 93.541z" fill="#67e5ee"/><path d="M34.371 381.184C77.103 452.927 155.432 501 245 501c89.569 0 167.897-48.073 210.629-119.816z" fill="#74727f"/><path d="M212.434 381.184H34.371c36.123 60.648 97.685 104.378 169.97 116.454-47.821-22.695-43.992-99.861 8.093-116.454z" fill="#5f5e6a"/><path d="M456.788 287.498c-4.216 0-8.203-1.92-10.831-5.216l-14.592-18.298a13.852 13.852 0 01-3.022-8.638c0-7.651 6.203-13.854 13.854-13.854h44.662c-7.558-9.412-17.756-16.527-29.478-20.238-38.261-12.112-97.565-15.966-127.083-17.168-11.54-.47-22.471-5.144-30.89-13.05-31.804-29.864-65.032-54.617-87.186-70.051a96.351 96.351 0 00-55.086-17.279H53.087a245.916 245.916 0 00-16.085 22.807l-34.453 94.13-.003-.002A246.89 246.89 0 000 256c0 40.897 10.034 79.445 27.754 113.34H500.61v-81.841h-43.822z" fill="#319df5"/><path d="M139.432 302.77V130.953c0-2.607-.841-5.163-2.456-7.21-8.42-10.67-.691-17.713 1.763-19.552a96.6 96.6 0 00-9.485-.484H53.087a245.916 245.916 0 00-16.085 22.807l-34.453 94.13-.003-.002A246.865 246.865 0 000 256c0 40.897 10.034 79.445 27.754 113.34h173.528c-63.573-.006-61.85-66.57-61.85-66.57zM303.546 348.509a8.543 8.543 0 01-8.543-8.542V234.343a8.543 8.543 0 1117.085 0v105.624a8.542 8.542 0 01-8.542 8.542z" fill="#0c88ed"/><path d="M288.001 211.281a71.896 71.896 0 01-4.187-3.637c-30.764-28.885-62.994-52.904-84.615-67.966-12.387-8.629-26.932-13.19-42.065-13.19H37.012C19.485 154.576 7.49 186.466 2.549 220.644h282.177l.178-.001c4.864-.077 6.891-6.316 3.097-9.362z" fill="#363540"/><path d="M136.486 127.113a74.376 74.376 0 00-9.546-.625H37.012C19.485 154.576 7.49 186.466 2.549 220.644h134.569v-89.691c0-1.313-.214-2.612-.632-3.84z" fill="#21212b"/><path d="M375.321 308.064c33.787 0 61.274 27.488 61.274 61.275h24.461c0-47.35-38.385-85.735-85.735-85.735s-85.735 38.385-85.735 85.735h24.461c-.001-33.787 27.486-61.275 61.274-61.275z" fill="#0c88ed"/><path d="M346.791 312.113a4.25 4.25 0 00-2.567-4.61c-6.78-2.802-6.839-9.07-6.18-12.802a4.19 4.19 0 00-.306-2.432c-28.51 13.929-48.153 43.202-48.153 77.07h24.461c0-23.381 13.167-43.738 32.472-54.064.012-1.14.12-2.218.273-3.162z" fill="#0f74d8"/><path d="M288.001 211.281a71.896 71.896 0 01-4.187-3.637c-9.736-9.142-19.618-17.792-29.265-25.829.018.056 8.742 26.694-18.945 38.83h49.123l.178-.001c4.863-.078 6.89-6.317 3.096-9.363z" fill="#21212b"/><path d="M113.805 126.488h25.782v94.157h-25.782z" fill="#5f5e6a"/><path d="M89.162 126.488h25.782v94.157H89.162z" fill="#4b4a55"/><path d="M294.714 200.275h-19.713c-5.401 0-9.82 4.419-9.82 9.82v31.967c0 5.401 4.419 9.82 9.82 9.82h19.713c12.196 0 22.174-9.979 22.174-22.174v-7.258c0-12.196-9.978-22.175-22.174-22.175z" fill="#eeefeb"/><path d="M282.514 229.707v-7.258c0-10.482 7.373-19.319 17.187-21.598a22.001 22.001 0 00-4.987-.576h-19.713c-5.401 0-9.82 4.419-9.82 9.82v31.967c0 5.401 4.419 9.82 9.82 9.82h19.713c1.714 0 3.382-.204 4.987-.576-9.813-2.28-17.187-11.117-17.187-21.599z" fill="#d6d6d0"/><path d="M183.97 259.94h-23.349a8.543 8.543 0 010-17.084h23.349a8.542 8.542 0 010 17.084zM31.892 259.94H8.542a8.542 8.542 0 010-17.084h23.349a8.542 8.542 0 018.542 8.542 8.54 8.54 0 01-8.541 8.542z" fill="#eeefeb"/><path d="M495.491 313.337h-6.468c-6.992 0-12.712 5.72-12.712 12.712v12.163c0 6.992 5.72 12.712 12.712 12.712h6.468c6.992 0 12.712-5.72 12.712-12.712v-12.163c0-6.991-5.72-12.712-12.712-12.712zM355.958 255.462h-12.529a8.543 8.543 0 010-17.085h12.529a8.543 8.543 0 010 17.085z" fill="#ffc743"/><path d="M314.046 368.201H27.153a245.058 245.058 0 0017.278 28.517H321.11a60.888 60.888 0 01-7.064-28.517zM497.742 368.201h-61.147a60.88 60.88 0 01-7.064 28.516h68.211c7.875 0 14.258-6.384 14.258-14.258 0-7.875-6.384-14.258-14.258-14.258z" fill="#4b4a55"/><path d="M375.321 436.293c-36.917 0-66.953-30.035-66.953-66.953 0-36.917 30.035-66.953 66.953-66.953 36.917 0 66.953 30.035 66.953 66.953-.001 36.917-30.036 66.953-66.953 66.953z" fill="#21212b"/><path d="M416.355 422.187c-.055-.006-.107-.015-.163-.02-13.321-1.39-14.727-9.462-14.346-14.257.158-1.98-1.048-3.77-2.92-4.434-6.203-2.201-7.079-7.132-6.911-10.379.095-1.85-1.082-3.544-2.831-4.154-27.278-9.517-25.876-32.144-24.111-41.15.395-2.016-.706-3.984-2.595-4.792-5.563-2.379-5.909-7.456-5.387-10.925.3-1.996-.867-3.875-2.741-4.623-8.132-3.246-8.295-10.809-7.558-15.339a4.236 4.236 0 00-.66-3.018c-22.333 10.865-37.764 33.785-37.764 60.244 0 36.918 30.035 66.953 66.953 66.953 15.454 0 29.69-5.278 41.034-14.106z"/><circle cx="375.321" cy="369.34" fill="#d6d6d0" transform="rotate(-83.05 375.118 369.208)" r="35.555"/><path d="M392.015 393.097c.095-1.85-1.082-3.544-2.831-4.154-27.278-9.517-25.876-32.144-24.111-41.15.395-2.016-.706-3.984-2.595-4.792-2.538-1.085-3.982-2.734-4.761-4.533-10.712 6.133-17.951 17.669-17.951 30.872 0 19.605 15.95 35.555 35.555 35.555 6.736 0 13.04-1.883 18.414-5.15-1.54-2.194-1.82-4.717-1.72-6.648z" fill="#c6c6c1"/><path d="M375.32 413.437c-24.315 0-44.097-19.782-44.097-44.098 0-24.315 19.782-44.098 44.097-44.098 24.316 0 44.098 19.782 44.098 44.098.001 24.316-19.781 44.098-44.098 44.098zm0-71.11c-14.895 0-27.012 12.118-27.012 27.012 0 14.895 12.117 27.013 27.012 27.013s27.013-12.118 27.013-27.013c.001-14.894-12.118-27.012-27.013-27.012z" fill="#eeefeb"/><path d="M398.926 403.476c-6.203-2.201-7.079-7.132-6.911-10.379a4.082 4.082 0 00-.499-2.152 26.874 26.874 0 01-16.195 5.407c-14.895 0-27.012-12.118-27.012-27.013 0-11.019 6.635-20.512 16.116-24.709a4.423 4.423 0 00-1.947-1.629c-5.563-2.379-5.909-7.456-5.387-10.925a4.154 4.154 0 00-.492-2.651c-14.979 7.054-25.376 22.29-25.376 39.914 0 24.315 19.782 44.098 44.097 44.098 9.607 0 18.5-3.098 25.751-8.333a4.415 4.415 0 00-2.145-1.628zM486.58 241.146h-45.264c-7.767 0-14.063 6.296-14.063 14.063 0 3.186 1.082 6.277 3.068 8.768l14.812 18.574a14.062 14.062 0 0010.995 5.295h44.483v-7.32a62.246 62.246 0 00-5.344-25.232 62.593 62.593 0 00-8.687-14.148z" fill="#d6d6d0"/><path d="M487.135 241.876c-11.222 2.727-19.556 12.836-19.556 24.898 0 8.735 4.374 16.445 11.047 21.071h21.984v-7.32a62.246 62.246 0 00-5.344-25.232 62.508 62.508 0 00-8.131-13.417z" fill="#eeefeb"/><path d="M187.647 368.201H27.153a245.058 245.058 0 0017.278 28.517h143.215c-15.413-15.415.001-28.517.001-28.517z" fill="#363540"/></svg><svg fill="none" viewBox="0 0 30 24" id="check" xmlns="http://www.w3.org/2000/svg"><path d="M27.586.557L9.528 18.615 2.414 11.5 0 13.915l9.528 9.528L30 2.97 27.586.557z" fill="#10C923"/></svg><svg fill="none" viewBox="0 0 50 50" id="clock" xmlns="http://www.w3.org/2000/svg"><g clip-path="url(#fclip0)"><path d="M25 0l-6.036 25L25 50c13.807 0 25-11.193 25-25S38.807 0 25 0z" fill="#54BBFF"/><path d="M0 25c0 13.807 11.193 25 25 25V0C11.193 0 0 11.193 0 25z" fill="#8DD2FF"/><path d="M25 3.018v43.964c12.14 0 21.982-9.842 21.982-21.982C46.982 12.86 37.14 3.018 25 3.018z" fill="#C6E8FF"/><path d="M43.964 25c0-12.14-8.49-21.982-18.964-21.982C12.86 3.018 3.018 12.86 3.018 25c0 12.14 9.842 21.982 21.982 21.982 10.473 0 18.964-9.842 18.964-21.982z" fill="#fff"/><path d="M25 44.718a.754.754 0 01-.755-.754V25.202l-7.871-13.634a.755.755 0 011.307-.754l8.073 13.984v19.166a.754.754 0 01-.754.754z" fill="#0C4870"/><path d="M25 6.79a.754.754 0 100-1.508.754.754 0 000 1.509zM15.518 9.331a.754.754 0 100-1.509.754.754 0 000 1.509zM8.576 16.273a.754.754 0 100-1.51.754.754 0 000 1.51zM6.036 25.755a.754.754 0 100-1.51.754.754 0 000 1.51zM8.576 35.236a.754.754 0 100-1.508.754.754 0 000 1.508zM15.518 42.178a.754.754 0 100-1.509.754.754 0 000 1.51zM34.482 42.178a.754.754 0 100-1.509.754.754 0 000 1.51zM41.423 35.236a.754.754 0 100-1.508.754.754 0 000 1.508zM43.964 25.755a.754.754 0 100-1.51.754.754 0 000 1.51zM41.423 16.273a.754.754 0 100-1.51.754.754 0 000 1.51zM34.482 9.331a.754.754 0 100-1.509.754.754 0 000 1.509z" fill="#54BBFF"/><path d="M25 26.51a1.51 1.51 0 100-3.02 1.51 1.51 0 000 3.02z" fill="#0789DE"/></g><defs><clipPath id="fclip0"><path fill="#fff" d="M0 0h50v50H0z"/></clipPath></defs></svg><svg fill="none" viewBox="0 0 50 50" id="diagnostics" xmlns="http://www.w3.org/2000/svg"><path d="M40.625 50H9.375A9.374 9.374 0 010 40.625V9.375A9.374 9.374 0 019.375 0h31.25A9.374 9.374 0 0150 9.375v31.25A9.374 9.374 0 0140.625 50z" fill="#F5E6FE"/><path d="M22.395 28.125c-.357 0-.692-.184-.883-.49l-2.298-3.676h-1.506a1.043 1.043 0 010-2.084h2.083c.359 0 .692.184.882.489l1.62 2.592 3.335-6.672c.353-.706 1.511-.706 1.864 0l2.838 5.675h2.22a1.043 1.043 0 010 2.085h-2.862c-.396 0-.755-.224-.932-.575l-2.194-4.39-3.234 6.47a1.046 1.046 0 01-.883.576h-.05z" fill="#D9A4FC"/><path d="M34.375 13.542h-18.75a3.128 3.128 0 00-3.125 3.125v16.667a3.128 3.128 0 003.125 3.125h18.75a3.128 3.128 0 003.125-3.125V16.667a3.128 3.128 0 00-3.125-3.125zM18.75 34.375h-2.083a1.042 1.042 0 110-2.084h2.083a1.043 1.043 0 010 2.084zm7.292 0H23.96a1.043 1.043 0 010-2.084h2.083a1.043 1.043 0 010 2.084zm6.25 0H30.21a1.043 1.043 0 010-2.084h2.083a1.043 1.043 0 010 2.084zm3.125-4.167H14.583V16.666c0-.574.467-1.041 1.042-1.041h18.75c.575 0 1.042.467 1.042 1.042v13.54z" fill="#BE63F9"/></svg><svg fill="none" viewBox="0 0 18 24" id="location" xmlns="http://www.w3.org/2000/svg"><path d="M9 0A8.402 8.402 0 00.6 8.4C.6 14.7 9 24 9 24s8.4-9.3 8.4-15.6C17.4 3.762 13.638 0 9 0zm0 11.4a3.001 3.001 0 010-6 3.001 3.001 0 010 6z" fill="#EB3723"/></svg><svg fill="none" viewBox="0 0 50 50" id="medicalBooks" xmlns="http://www.w3.org/2000/svg"><path d="M40.625 50H9.375A9.374 9.374 0 010 40.625V9.375A9.374 9.374 0 019.375 0h31.25A9.374 9.374 0 0150 9.375v31.25A9.374 9.374 0 0140.625 50z" fill="#FFF9DD"/><path d="M29.34 24.978l-6.813 6.814a.52.52 0 00-.14.25l-1.135 4.82a.522.522 0 00.626.624l4.819-1.136a.52.52 0 00.248-.139l6.814-6.814-4.418-4.419zM36.889 23.322l-1.473-1.474c-.788-.787-2.16-.787-2.947 0l-2.025 2.026 4.42 4.42 2.025-2.025a2.07 2.07 0 00.611-1.474c0-.558-.217-1.08-.611-1.473z" fill="#FFD200"/><path d="M31.25 16.667c-.575 0-1.042.467-1.042 1.042v2.083a1.043 1.043 0 002.084 0V17.71c0-.576-.467-1.042-1.042-1.042zM27.676 21.875h-4.238V18.75a1.042 1.042 0 10-2.083 0v3.125h-6.772v-4.427a1.04 1.04 0 10-2.083 0v14.324a2.608 2.608 0 002.605 2.603h4.52a1.043 1.043 0 000-2.084h-4.52a.52.52 0 01-.52-.52v-2.605h7.812a1.04 1.04 0 001.04-1.041v-4.167h4.24a1.04 1.04 0 100-2.083zm-13.093 2.083h6.77v3.125h-6.77v-3.125z" fill="#FFE777"/><path d="M29.948 12.5H14.844a2.345 2.345 0 00-2.344 2.344v3.906h19.792v-3.906a2.345 2.345 0 00-2.344-2.344z" fill="#FFD200"/></svg><svg fill="none" viewBox="0 0 50 50" id="medicalСertificates" xmlns="http://www.w3.org/2000/svg"><path d="M40.625 50H9.375A9.374 9.374 0 010 40.625V9.375A9.374 9.374 0 019.375 0h31.25A9.374 9.374 0 0150 9.375v31.25A9.374 9.374 0 0140.625 50z" fill="#E3F8FA"/><path d="M25.26 34.375h-.52a1.825 1.825 0 01-1.823-1.823v-2.344h-2.344a1.825 1.825 0 01-1.823-1.823v-.52c0-1.005.817-1.824 1.823-1.824h2.344v-2.344c0-1.005.817-1.823 1.824-1.823h.52c1.005 0 1.823.817 1.823 1.823v2.344h2.344c1.005 0 1.824.817 1.824 1.823v.52a1.825 1.825 0 01-1.824 1.824h-2.344v2.344a1.827 1.827 0 01-1.823 1.823z" fill="#8CE1EB"/><path d="M31.25 37.5h-12.5a3.128 3.128 0 01-3.125-3.125V18.75a3.128 3.128 0 013.125-3.125h1.702a1.043 1.043 0 010 2.084H18.75c-.575 0-1.042.468-1.042 1.043v15.625c0 .575.467 1.042 1.042 1.042h12.5c.575 0 1.042-.467 1.042-1.042V18.75c0-.575-.467-1.042-1.042-1.042h-1.702a1.042 1.042 0 110-2.083h1.702a3.128 3.128 0 013.125 3.125v15.625A3.128 3.128 0 0131.25 37.5z" fill="#26C6DA"/><path d="M28.386 19.27h-6.77a1.825 1.825 0 01-1.824-1.823v-2.083c0-.431.35-.781.781-.781h1.67A2.87 2.87 0 0125 12.5a2.87 2.87 0 012.756 2.083h1.67c.432 0 .782.35.782.781v2.083a1.824 1.824 0 01-1.822 1.823z" fill="#26C6DA"/></svg><svg fill="none" viewBox="0 0 24 24" id="phone2" xmlns="http://www.w3.org/2000/svg"><path fill-rule="evenodd" clip-rule="evenodd" d="M4 3h3.5c.55 0 1 .45 1 1 0 1.25.2 2.45.57 3.57.11.35.03.74-.25 1.02l-2.2 2.2c1.44 2.83 3.76 5.14 6.59 6.59l2.2-2.2c.2-.19.45-.29.71-.29.1 0 .21.01.31.05 1.12.37 2.33.57 3.57.57.55 0 1 .45 1 1V20c0 .55-.45 1-1 1-9.39 0-17-7.61-17-17 0-.55.45-1 1-1zm2.54 2c.06.89.21 1.76.45 2.59l-1.2 1.2c-.41-1.2-.67-2.47-.76-3.79h1.51zm9.86 12.02c.85.24 1.72.39 2.6.45v1.49c-1.32-.09-2.59-.35-3.8-.75l1.2-1.19z" fill="#0C88ED"/></svg><svg viewBox="0 0 512 512" id="scooter" xmlns="http://www.w3.org/2000/svg"><path d="M245 22C137.31 22 45.852 91.482 13 188.06l38.907 229.745C96.749 475.141 166.568 512 245 512c135.31 0 245-109.69 245-245S380.31 22 245 22z" fill="#67e5ee"/><path d="M372.28 351.761L244.709 368.42 41.048 353.682l10.854 64.093C96.74 475.126 166.558 512 245 512c105.511 0 195.421-66.705 229.91-160.239z" fill="#363540"/><path d="M372.28 351.761L244.709 368.42 41.048 353.682l10.854 64.093C96.74 475.126 166.558 512 245 512c105.511 0 195.421-66.705 229.91-160.239z" fill="#74727f"/><path d="M372.28 351.761L244.709 368.42l-4.719-.341c21.994 14.978 36.441 40.215 36.441 68.831 0 32.738-18.911 61.047-46.398 74.635 4.951.299 9.941.455 14.967.455 105.511 0 195.421-66.705 229.91-160.239z" fill="#5f5e6a"/><path d="M442.366 317.681c-13.471 2.369-28.821 7.158-44.935 16.711l-29.027 17.211c-8.558 12.581-13.564 27.773-13.564 44.136 0 43.399 35.181 78.58 78.58 78.58S512 439.139 512 395.74c0-40.372-30.451-73.615-69.634-78.059zm-8.946 117.811c-21.955 0-39.752-17.798-39.752-39.752s17.797-39.752 39.752-39.752c21.954 0 39.752 17.798 39.752 39.752s-17.797 39.752-39.752 39.752z" fill="#21212b"/><path d="M433.42 474.32c13.812 0 26.785-3.575 38.063-9.833-16.963-4.915-17.165-15.671-15.77-21.662.507-2.177-.606-4.45-2.704-5.223-2.952-1.087-4.641-2.793-5.565-4.663a39.657 39.657 0 01-14.024 2.553c-21.955 0-39.752-17.798-39.752-39.752 0-14.665 7.947-27.466 19.763-34.356l-15.388-27.344c-.205.12-.408.232-.613.353l-29.027 17.211c-8.558 12.581-13.564 27.773-13.564 44.136.001 43.399 35.182 78.58 78.581 78.58z"/><path d="M433.42 444.702c-26.998 0-48.962-21.964-48.962-48.961 0-26.998 21.964-48.962 48.962-48.962 26.997 0 48.961 21.964 48.961 48.962 0 26.997-21.963 48.961-48.961 48.961z" fill="#4b4a55"/><path d="M455.25 439.547a4.239 4.239 0 00-2.241-1.945c-6.499-2.393-6.919-7.777-6.379-11.346.284-1.873-.636-3.766-2.335-4.604-8.324-4.108-4.453-13.336-4.453-13.336l-30.918-54.942c-14.611 8.481-24.465 24.289-24.465 42.366 0 26.997 21.964 48.961 48.962 48.961a48.635 48.635 0 0021.829-5.154z" fill="#363540"/><path d="M433.42 365.198c-16.842 0-30.543 13.701-30.543 30.543 0 16.841 13.701 30.542 30.543 30.542 16.841 0 30.542-13.701 30.542-30.542 0-16.842-13.701-30.543-30.542-30.543z" fill="#d6d6d0"/><path d="M433.42 426.283c4.546 0 8.859-1.006 12.739-2.794a4.226 4.226 0 00-1.864-1.836c-8.324-4.108-4.453-13.336-4.453-13.336l-21.889-38.897c-9.013 5.316-15.076 15.121-15.076 26.321 0 16.84 13.701 30.542 30.543 30.542z" fill="#c6c6c1"/><path d="M413.736 326.144a135.975 135.975 0 00-16.305 8.249l-8.593 5.095 32.005 62.674c3.554 6.961 12.069 9.694 18.999 6.154 6.945-3.547 9.701-12.053 6.154-18.998z" fill="#eeefeb"/><path d="M415.131 361.908l.274-.153c5.762-3.205 12.667-2.283 17.395 1.723l-19.064-37.333a135.975 135.975 0 00-16.305 8.249l-8.593 5.095 18.383 35.998a15.419 15.419 0 017.91-13.579z" fill="#d6d6d0"/><path d="M491.482 310.077c-37.982-53.835-97.768-44.91-101.88-45.777-.06.141-.113.285-.176.425l-46.61 104.505 54.615-32.382c41.371-24.53 77.772-17.724 90.004-18.877 4.032 0 6.405-4.551 4.047-7.894z" fill="#fbb031"/><path d="M389.602 264.301c-.06.141-.113.285-.176.425l-46.61 104.505 54.615-32.382c8.22-4.874 16.238-8.495 23.915-11.203-39.691-23.311-8.186-60.721-8.186-60.721-12.866-1.324-22.035-.303-23.558-.624z" fill="#f7991e"/><path d="M11.846 342.357a246.598 246.598 0 003.626 10.424l32.245 56.975a81.578 81.578 0 001.803-17.006c0-16.778-5.072-32.365-13.76-45.326z" fill="#21212b"/><path d="M30.985 386.312a49.71 49.71 0 01-1.113-10.467c0-7.655 1.74-14.9 4.834-21.375.288-.997.595-1.989.944-2.97l-20.236 1.178a243.591 243.591 0 0015.571 33.634z" fill="#d6d6d0"/><path d="M36.954 346.581a49.462 49.462 0 00-9.538 29.265c0 1.421.074 2.824.191 4.215a245.31 245.31 0 0025.571 39.345 49.474 49.474 0 0023.94 6.142c19.636 0 36.607-11.39 44.681-27.921-13.001-14.287-23.599-29.359-30.185-39.464z" fill="#eeefeb"/><path d="M79.013 398.196v-42.703l-42.059-8.912a49.462 49.462 0 00-9.538 29.265c0 1.421.074 2.824.191 4.215a245.31 245.31 0 0025.571 39.345 49.474 49.474 0 0023.94 6.142c.624 0 1.245-.012 1.863-.035-14.633-14.677.032-27.317.032-27.317z" fill="#d6d6d0"/><path d="M69.922 353.567c-8.316 3.539-14.147 11.783-14.147 21.391 0 12.834 10.404 23.239 23.239 23.239s23.239-10.404 23.239-23.239c0-.509-.044-1.006-.076-1.506a348.337 348.337 0 01-10.563-15.288z" fill="#c6c6c1"/><path d="M159.977 348.437l3.846 23.872c37.533 7.574 71.396 10.848 96.703 12.193l9.483-22.648c-26.77-1.026-66.027-4.252-110.032-13.417z"/><path d="M163.824 372.309a658.892 658.892 0 0046.659 7.659c1.031-1.425 1.794-2.225 1.794-2.225 13.085-8.008 2.717-20.297 2.717-20.297v-.001c-16.96-2.054-35.52-4.947-55.016-9.008z" fill="#21212b"/><path d="M331.207 239.248l-20.931-76.576a14.188 14.188 0 01-.322-1.556c-15.266 3.384-25.132 18.225-22.342 33.61l7.467 41.195a138.288 138.288 0 01-8.514 78.078l-28.931 69.092c12.913.755 23.51.998 31.072 1.044h.156c11.032 0 20.654-7.047 23.974-17.576l16.948-53.734a130.118 130.118 0 001.423-73.577z" fill="#4b4a55"/><path d="M331.765 300.467s-3.24-15.051-19.073-15.051-15.961-12.355-15.961-12.355l-.022.005A138.275 138.275 0 01286.564 314l-28.931 69.092c12.913.755 23.51.998 31.072 1.044h.156c11.032 0 20.654-7.047 23.974-17.576l16.948-53.734a130.99 130.99 0 002.825-10.525z" fill="#363540"/><path d="M152.553 195.07c-10.257 1.449-24.74 3.045-45.001 4.509-38.896 2.812-74.144-6.594-93.877-13.436a243.113 243.113 0 00-8.653 31.275c13.072 3.084 37.339 9.895 98.755 25.137 24.174 6.146 39.585-2.175 71.752-7.462 1.629-.332 3.197.098 4.388 1.142.721-1.438 10.419-9.674 5.45-22.17-5.23-13.158-18.794-20.977-32.814-18.995z" fill="#eb5793"/><path d="M65.579 225.671c-5.645-18.785 13.434-26.059 13.434-26.059l.001-.001c-27.147-1.802-50.582-8.351-65.339-13.468a243.113 243.113 0 00-8.653 31.275c9.853 2.324 26.075 6.768 59.762 15.342 1.185-2.122 1.526-4.656.795-7.089z" fill="#e7387f"/><path d="M391.671 239.73c-9.342-20.068-29.583-59.887-55.914-90.542-4.751-5.532-12.807-7.238-19.198-3.727a15.36 15.36 0 00-7.467 17.535l20.931 76.576a129.13 129.13 0 01-1.41 72.885l-16.947 53.734a23.881 23.881 0 01-11.708 13.979l17.112 32.197c7.913-4.914 14.37-12.121 18.308-20.951l56.505-126.69a30.132 30.132 0 00-.212-24.996z" fill="#ffc743"/><path d="M175.283 233.89l-39.942 8.203a69.818 69.818 0 01-31.261-.728L5.281 216.231A245.987 245.987 0 000 267c0 26.448 4.208 51.91 11.962 75.773l78.424 16.618 2.182 1.083c-.391-.593-.782-1.185-1.153-1.753-1.065-1.634-.609-3.298.173-4.312.597-.776 1.614-1.464 2.89-1.464.385 0 .794.063 1.221.205 23.898 7.936 47.573 13.855 69.897 18.27l.97-1.025-8.371-51.954a67.933 67.933 0 016.768-42.091l17.266-33.276c2.471-4.763-1.688-10.264-6.946-9.184z" fill="#fbb031"/><path d="M5.281 216.231A245.987 245.987 0 000 267c0 26.448 4.208 51.91 11.962 75.773l24.112 5.109c-.107-.153-.206-.304-.314-.458-33.547-47.773-.727-72.149 15.238-80.527 3.815-2.002 5.731-6.449 4.506-10.58-3.134-10.57 2.008-17.063 6.697-20.592a9.456 9.456 0 003.164-4.209z" fill="#f7991e"/><path d="M4.775 249.039c-1.38 0-2.754.029-4.122.081A248.409 248.409 0 000 267c0 26.448 4.208 51.91 11.962 75.773l78.424 16.618 2.182 1.083c-.391-.593-.782-1.185-1.153-1.753-1.065-1.634-.609-3.298.173-4.312.597-.776 1.614-1.464 2.89-1.464.385 0 .794.063 1.221.205a538.368 538.368 0 0024.582 7.493C113.18 297.738 64.176 249.039 4.775 249.039z" fill="#ffc743"/><path d="M35.76 347.424c-33.547-47.773-.727-72.149 15.238-80.527a9.119 9.119 0 004.41-5.197c-15.309-8.108-32.484-12.661-50.633-12.661-1.38 0-2.754.029-4.122.081A248.409 248.409 0 000 267c0 26.448 4.208 51.91 11.962 75.773l24.112 5.109c-.107-.153-.206-.304-.314-.458zM272.206 119.246c0 20.463 33.576 37.051 74.993 37.051V82.195c-41.418 0-74.993 16.588-74.993 37.051z" fill="#fbb031"/><path d="M365.84 82.195h-19.925v74.103h8.002c4.644 0 8.65-3.131 9.591-7.496l11.923-55.301c1.258-5.835-3.384-11.306-9.591-11.306z" fill="#eeefeb"/><path d="M286.527 110.237a9.19 9.19 0 01-6.962-3.175c-3.332-3.842-2.919-9.659.923-12.991l31.551-27.365a4.637 4.637 0 001.599-3.504V45.458a9.21 9.21 0 019.21-9.209 9.209 9.209 0 019.209 9.209v17.743a23.044 23.044 0 01-7.95 17.418l-31.551 27.365a9.165 9.165 0 01-6.029 2.253z" fill="#d6d6d0"/><path d="M317.529 412.073l-17.098-32.17a23.866 23.866 0 01-11.719 3.004c-33.86-.204-111.522-3.988-192.626-30.922-4.444-1.476-8.257 3.484-5.7 7.406 7.509 11.52 20.23 29.499 35.785 45.407 13.911 14.227 33.332 21.689 53.202 20.655l115.161-5.996c8.336-.435 16.213-3.064 22.995-7.384z" fill="#fbb031"/><path d="M212.277 377.742c-34.25-4.286-74.77-12.002-116.191-25.758-4.444-1.476-8.257 3.484-5.7 7.406 7.509 11.52 20.23 29.499 35.786 45.407 13.91 14.227 33.332 21.689 53.202 20.655l47.497-2.473c-38.322-20.437-14.594-45.237-14.594-45.237z" fill="#f7991e"/><circle cx="292.239" cy="114.637" fill="#21212b" r="24.354"/><path d="M225.173 132.241c-2.056-8.146 2.881-16.416 11.028-18.472l45.953-11.599c8.144-2.056 16.417 2.88 18.473 11.027 2.056 8.146-2.88 16.416-11.027 18.472l-45.953 11.599c-8.159 2.061-16.421-2.896-18.474-11.027z" fill="#363540"/><path d="M307.783 6.01v52.141c14.341-.071 25.947-11.713 25.947-26.071S322.125 6.081 307.783 6.01z" fill="#eeefeb"/><path d="M301.094 64.161c-5.086 0-9.21-4.123-9.21-9.209V9.209A9.21 9.21 0 01301.094 0a9.209 9.209 0 019.209 9.209v45.743a9.209 9.209 0 01-9.209 9.209z" fill="#d6d6d0"/></svg><svg viewBox="0 0 512 512" id="tankTruck" xmlns="http://www.w3.org/2000/svg"><path d="M57.621 381.661l30.287 62.335C130.436 479.577 185.213 501 245 501c89.37 0 167.552-47.859 210.347-119.339z" fill="#74727f"/><path d="M167.25 381.661c68.536 0 78.839 90.924 26.235 113.896A245.789 245.789 0 00245 501c89.37 0 167.552-47.859 210.347-119.339z" fill="#5f5e6a"/><path d="M245 11c-48.95 0-94.542 14.363-132.806 39.093L20.041 304.314l37.58 77.347h397.726C477.344 344.918 490 301.939 490 256c0-135.31-109.69-245-245-245z" fill="#9f66d8"/><path d="M232.881 323.141a8.434 8.434 0 01-8.434-8.434V141.136c0-7.954-6.471-14.425-14.426-14.425h-14.963a8.435 8.435 0 110-16.869h14.963c17.256 0 31.295 14.039 31.295 31.294v173.571a8.435 8.435 0 01-8.435 8.434z" fill="#56b1fc"/><path d="M241.291 140.182c-.508-16.815-14.335-30.34-31.27-30.34h-14.963a8.435 8.435 0 100 16.869h14.963c7.922 0 14.369 6.42 14.421 14.331 3.412-6.715 12.781-7.176 16.849-.86z" fill="#319df5"/><path d="M299.231 341.365h139.451v54.382H299.231z"/><path d="M15.295 341.365a242.47 242.47 0 005.748 14.082l27.877 40.3h59.953v-54.382z" fill="#21212b"/><path d="M429.442 141.186c-2.26-16.347-16.374-29.043-33.316-29.043h-91.033c-6.88 0-12.509 5.629-12.509 12.509v16.535h136.858z" fill="#eeefeb"/><path d="M380.449 124.651c0-6.88 5.629-12.509 12.509-12.509h-87.866c-6.88 0-12.509 5.629-12.509 12.509v16.535h104.4c-9.131 0-16.534-7.403-16.534-16.535z" fill="#d6d6d0"/><path d="M29.684 284.348H1.642a244.065 244.065 0 005.586 30.892h22.456c4.836 0 8.755-4.348 8.755-9.711v-11.471c0-5.362-3.92-9.71-8.755-9.71z" fill="#363540"/><path d="M10.616 305.53v-11.471c0-5.363 3.92-9.711 8.755-9.711H1.642a244.065 244.065 0 005.586 30.892h12.144c-4.836 0-8.756-4.347-8.756-9.71z" fill="#21212b"/><path d="M128.923 284.348H88.822c-4.836 0-8.756 4.348-8.756 9.711v11.47c0 5.363 3.92 9.711 8.756 9.711h40.101c4.836 0 8.756-4.348 8.756-9.711v-11.47c0-5.363-3.92-9.711-8.756-9.711z" fill="#363540"/><path d="M108.873 305.53v-11.471c0-5.363 3.92-9.711 8.756-9.711H88.822c-4.836 0-8.756 4.348-8.756 9.711v11.471c0 5.363 3.92 9.711 8.756 9.711h28.806c-4.835-.001-8.755-4.348-8.755-9.711z" fill="#21212b"/><path d="M132.459 76.001a69.859 69.859 0 0128.162 5.917c-1.787-17.804-16.924-31.825-35.178-31.825h-13.248a246.028 246.028 0 00-33.382 25.908z" fill="#d6d6d0"/><path d="M42.713 329.587a65.74 65.74 0 00-29.199 6.812 244.066 244.066 0 007.556 19.088l4.809 6.952a37.074 37.074 0 0116.834-4.04c20.594 0 37.348 16.754 37.348 37.348 0 10.873-4.683 20.662-12.124 27.493l4.797 6.935a246.979 246.979 0 0015.174 13.823c12.888-12.08 20.964-29.236 20.964-48.251.001-36.48-29.679-66.16-66.159-66.16z" fill="#21212b"/><path d="M272.519 404.308v-62.943H114.157l23.213 62.943c2.364 6.41-.159 13.42-5.675 16.971l.575 1.405h148.779c-7.444-2.719-11.27-10.947-8.53-18.376z" fill="#eeefeb"/><path d="M272.519 404.307v-62.943h-37.156v69.785c0 5.369-3.537 9.947-8.394 11.533h54.081c-7.445-2.717-11.271-10.945-8.531-18.375z" fill="#d6d6d0"/><path d="M0 256c0 10.451.658 20.747 1.928 30.854h130.53c38.797 0 70.54-31.743 70.54-70.54v-73.146c0-38.797-31.743-70.54-70.54-70.54H82.543C31.918 117.511 0 183.023 0 256z" fill="#eeefeb"/><path d="M40.782 216.314v-73.146c0-14.121 4.221-27.297 11.441-38.359C19.513 146.448 0 198.942 0 256c0 10.451.658 20.747 1.928 30.853h109.393c-38.796 0-70.539-31.742-70.539-70.539zM97.891 314.707a14.303 14.303 0 0110.926 9.131l6.464 17.527h157.237v-26.658z" fill="#d6d6d0"/><path d="M103.892 314.707h-6c1.29.229 2.528.635 3.687 1.191.72-.478 1.497-.874 2.313-1.191zM227.586 314.707c4.535 1.762 7.776 6.168 7.776 11.306v15.352h37.156v-26.658z" fill="#c6c6c1"/><path d="M111.066 323.837a14.307 14.307 0 00-13.425-9.358h-90.6a242.973 242.973 0 008.911 28.617h68.342a4.838 4.838 0 014.54 3.165l25.059 67.948c2.739 7.427 10.974 11.205 18.375 8.474 7.414-2.735 11.209-10.961 8.474-18.375z" fill="#4b4a55"/><path d="M490.69 348.376c-4.838 0-8.773-3.757-8.773-8.375v-42.743c0-4.618 3.935-8.375 8.773-8.375h8.184v-25.325c0-5.94-1.018-11.836-3.008-17.433l-30.972-87.073a30.257 30.257 0 00-28.507-20.117H290.975c-11.435 0-20.705 9.27-20.705 20.705v244.666l.853-.064 28.824-78.157a14.307 14.307 0 0113.425-9.358h111.291a14.307 14.307 0 0113.425 9.358l18.542 50.276h42.245v-27.987h-8.185z" fill="#319df5"/><path d="M380.449 301.211V154.067c0-6.932 4.439-12.861 10.609-15.13H290.975c-11.435 0-20.705 9.27-20.705 20.705v244.666l.853-.064 28.824-78.157a14.307 14.307 0 0113.425-9.358h78.873c-6.781-1.908-11.796-8.149-11.796-15.518z" fill="#0c88ed"/><path d="M328.275 161.429h-29.382a6.131 6.131 0 00-6.131 6.131v52.214a6.132 6.132 0 006.131 6.132h29.382a6.131 6.131 0 006.131-6.132V167.56a6.131 6.131 0 00-6.131-6.131z" fill="#21212b"/><path d="M473.919 251.497c-2.602-7.45-9.615-26.755-30.216-84.906a7.78 7.78 0 00-7.317-5.162h-72.575a5.864 5.864 0 00-5.864 5.864v52.749a5.864 5.864 0 005.864 5.864h36.39a5.862 5.862 0 015.424 3.637l8.777 21.378a10.85 10.85 0 0010.037 6.729h45.104c3.19 0 5.428-3.141 4.376-6.153z" fill="#363540"/><path d="M363.811 161.429a5.864 5.864 0 00-5.864 5.864v52.749a5.864 5.864 0 005.864 5.864h16.639v-64.477z" fill="#21212b"/><path d="M382.362 262.363h-12.998a8.435 8.435 0 010-16.87h12.998a8.435 8.435 0 010 16.87z" fill="#56b1fc"/><path d="M42.713 358.399a37.108 37.108 0 00-18.114 4.702 245.522 245.522 0 0042.272 61.095c8.062-6.856 13.19-17.062 13.19-28.449 0-20.594-16.754-37.348-37.348-37.348z" fill="#d6d6d0"/><path d="M42.713 349.964a45.497 45.497 0 00-21.68 5.47 243.375 243.375 0 007.398 15.189 28.73 28.73 0 0114.282-3.789c15.943 0 28.913 12.971 28.913 28.914 0 8.922-4.063 16.91-10.435 22.219a246.693 246.693 0 0011.584 12.268c9.623-8.399 15.721-20.74 15.721-34.486-.001-25.247-20.538-45.785-45.783-45.785z" fill="#eeefeb"/><path d="M369.017 461.907c-36.48 0-66.16-29.68-66.16-66.16s29.68-66.16 66.16-66.16 66.16 29.679 66.16 66.16c0 36.48-29.68 66.16-66.16 66.16zm0-103.508c-20.594 0-37.348 16.755-37.348 37.348 0 20.594 16.755 37.348 37.348 37.348 20.594 0 37.348-16.754 37.348-37.348s-16.755-37.348-37.348-37.348z" fill="#21212b"/><path d="M414.776 443.461c-10.082-.008-13.203-4.999-14.081-9.015-.587-2.683-2.545-4.839-5.181-5.612-2.103-.617-3.613-1.623-4.699-2.789a37.135 37.135 0 01-21.799 7.05c-20.594 0-37.348-16.754-37.348-37.348 0-10.681 4.514-20.321 11.725-27.135-1.163-1.49-1.737-3.245-1.998-4.848a7.284 7.284 0 00-4.903-5.741c-6.443-2.131-7.885-6.969-7.989-10.563a6.952 6.952 0 00-.922-3.237c-15.063 12.137-24.725 30.719-24.725 51.524 0 36.48 29.68 66.16 66.16 66.16 17.745-.001 33.867-7.036 45.76-18.446z"/><circle cx="369.017" cy="395.747" fill="#d6d6d0" r="37.348"/><path d="M369.017 433.095c8.132 0 15.659-2.62 21.799-7.05-1.337-1.435-2.029-3.112-2.376-4.608-.585-2.528-2.387-4.577-4.838-5.43-23.801-8.272-29.66-28.943-31.102-38.659-.402-2.707-2.282-4.982-4.882-5.836-1.915-.629-3.268-1.675-4.224-2.9-7.212 6.814-11.725 16.454-11.725 27.135-.001 20.594 16.754 37.348 37.348 37.348z" fill="#c6c6c1"/><path d="M369.017 441.529c-25.245 0-45.783-20.538-45.783-45.783s20.538-45.783 45.783-45.783 45.783 20.538 45.783 45.783c-.001 25.246-20.538 45.783-45.783 45.783zm0-74.696c-15.943 0-28.914 12.971-28.914 28.914s12.971 28.914 28.914 28.914 28.913-12.971 28.913-28.914-12.97-28.914-28.913-28.914z" fill="#eeefeb"/><path d="M323.234 395.747c0 25.245 20.538 45.783 45.783 45.783 11.267 0 21.59-4.099 29.575-10.874a7.342 7.342 0 00-3.077-1.821c-4.693-1.376-6.447-4.687-7.074-7.397a7.61 7.61 0 00-1.483-3.041 28.76 28.76 0 01-17.941 6.264c-15.943 0-28.914-12.971-28.914-28.914 0-8.96 4.097-16.981 10.516-22.288a7.136 7.136 0 00-3-1.946c-4.243-1.394-5.747-4.827-6.222-7.749a7.243 7.243 0 00-1.485-3.333c-10.18 8.404-16.678 21.115-16.678 35.316z" fill="#d6d6d0"/><path d="M499.853 287.759h-9.162c-5.444 0-9.898 4.275-9.898 9.5v42.742c0 5.225 4.454 9.5 9.898 9.5h9.162c5.444 0 9.898-4.275 9.898-9.5v-42.742c0-5.225-4.454-9.5-9.898-9.5z" fill="#ffc743"/><path d="M499.853 318.63h-9.162c-5.444 0-9.898-4.275-9.898-9.5v30.871c0 5.225 4.454 9.5 9.898 9.5h9.162c5.444 0 9.898-4.275 9.898-9.5V309.13c0 5.225-4.454 9.5-9.898 9.5z" fill="#fbb031"/><path d="M97.642 314.479h-90.6a242.973 242.973 0 008.911 28.617h68.342c-8.318-24.467 13.347-28.617 13.347-28.617zM498.874 374.114h-69.598l16 43.266h53.598c7.219 0 13.126-5.907 13.126-13.127V387.24c0-7.219-5.907-13.126-13.126-13.126z" fill="#363540"/><path d="M484.907 404.253V387.24c0-7.22 5.907-13.127 13.126-13.127h-68.757l16 43.266h52.757c-7.219.001-13.126-5.906-13.126-13.126z" fill="#21212b"/><path d="M467.764 404.308l-29.677-80.47a14.307 14.307 0 00-13.425-9.358H313.371a14.308 14.308 0 00-13.425 9.358l-29.677 80.47c-2.814 7.629 1.286 16.119 9.129 18.6 7.345 2.323 15.194-1.848 17.859-9.076l24.92-67.57a4.838 4.838 0 014.54-3.165h84.597a4.84 4.84 0 014.541 3.165l25.059 67.948c2.739 7.427 10.974 11.205 18.375 8.474 7.415-2.736 11.21-10.962 8.475-18.376z" fill="#4b4a55"/><path d="M279.398 422.907c7.345 2.323 15.194-1.848 17.859-9.076l24.92-67.57a4.838 4.838 0 014.54-3.165h.087a7.341 7.341 0 00-2.355-1.82c-14.341-7.002-12.743-20.176-11.599-24.983a7.063 7.063 0 00.179-1.801 14.3 14.3 0 00-13.084 9.345l-29.677 80.47c-2.813 7.63 1.287 16.12 9.13 18.6z" fill="#363540"/></svg><svg viewBox="0 0 512 512" id="taxi" xmlns="http://www.w3.org/2000/svg"><path d="M473.25 345.193C484.06 317.552 490 287.47 490 256c0-135.31-109.69-245-245-245-98.869 0-184.049 58.571-222.764 142.902l1.155 191.291z" fill="#319df5"/><path d="M23.391 345.193l.094 15.58C62.761 443.665 147.179 501 245 501c103.839 0 192.584-64.603 228.25-155.807z" fill="#74727f"/><path d="M202.063 345.193H23.391l.094 15.58C50.588 417.973 99.189 463 158.854 485.418c-57.935-36.93-37.897-140.225 43.209-140.225z" fill="#5f5e6a"/><path d="M124.2 92.942a7.94 7.94 0 00-7.596-5.631H85.722a7.938 7.938 0 00-7.596 5.631l-11.927 39.244h69.927z" fill="#eeefeb"/><path d="M109.305 87.311H85.722a7.938 7.938 0 00-7.596 5.631l-11.927 39.245h32.718l6.346-39.245c.541-3.345 2.182-5.631 4.042-5.631z" fill="#d6d6d0"/><path d="M136.126 129.963H66.199a5.843 5.843 0 00-5.843 5.843v15.756a641.603 641.603 0 0132.442-2.123c9.408-.369 18.793-.584 27.902-.584 6.631 0 13.78.825 21.269 2.295v-15.345a5.843 5.843 0 00-5.843-5.842z" fill="#363540"/><path d="M99.276 129.963H66.199a5.843 5.843 0 00-5.843 5.843v15.756a641.603 641.603 0 0132.442-2.123c3.431-.135 6.854-.241 10.266-.331a9.439 9.439 0 00-1.907-2.174c-10.425-8.796-1.881-16.971-1.881-16.971z" fill="#21212b"/><path d="M504.025 263.668c-15.795-12.571-56.328-36.997-132.833-36.997H324.84a75.637 75.637 0 01-40.472-11.719c-35.106-22.229-113.897-68.32-163.668-68.32-9.109 0-18.494.215-27.902.584-23.656.928-47.207 3.182-70.562 6.686a243.795 243.795 0 00-7.885 19.363L.682 237.871A247.784 247.784 0 000 256c0 27.511 4.535 53.963 12.898 78.65H317.16c-.027-.739-.056-1.477-.056-2.223 0-32.976 26.828-59.804 59.804-59.804s59.803 26.828 59.803 59.804a59.48 59.48 0 01-3.805 20.971h4.804c11.698 0 23.362-1.244 34.797-3.71l22.81-4.92a21.142 21.142 0 0016.684-20.666V280.21a21.138 21.138 0 00-7.976-16.542z" fill="#ffc743"/><path d="M147.648 331.148c-23.777-6.787-25.898-33.423-25.898-33.423l-8.453-55.27-11.84-77.716c-9.709-9.709-.411-17.71-.299-17.805-2.781.081-5.568.172-8.359.282-23.656.928-47.207 3.182-70.562 6.686a243.795 243.795 0 00-7.885 19.363L.682 237.871A247.784 247.784 0 000 256c0 27.511 4.535 53.963 12.898 78.65H150.24c.022-1.531-.94-3.03-2.592-3.502z" fill="#fbb031"/><path d="M504.025 263.668c-8.257-6.572-23.292-16.379-46.675-24.247l-6.98 7.988c-6.749 7.724-6.358 19.357.895 26.61l6.265 6.265a19.493 19.493 0 0013.783 5.709H512v-5.781a21.135 21.135 0 00-7.975-16.544z" fill="#d6d6d0"/><path d="M512 280.211c0-6.444-2.933-12.53-7.975-16.543-4.223-3.361-10.232-7.569-18.211-11.931-8.438 3.45-14.389 11.73-14.389 21.409 0 4.754 1.438 9.171 3.898 12.846H512z" fill="#eeefeb"/><path d="M484.765 313.379c-7.337 0-13.34 6.003-13.34 13.34v6.114c0 7.337 6.003 13.34 13.34 13.34h4.042l6.509-1.404A21.142 21.142 0 00512 324.103v-10.724z" fill="#fbb031"/><path d="M491.712 332.833v-6.114c0-7.337 6.003-13.34 13.34-13.34h-20.288c-7.337 0-13.34 6.003-13.34 13.34v6.114c0 7.337 6.003 13.34 13.34 13.34h4.043l6.509-1.404a21.11 21.11 0 002.535-.734c-3.683-2.381-6.139-6.515-6.139-11.202z" fill="#f7991e"/><path d="M279.14 237.275a55.545 55.545 0 01-33.117 9.343L.743 236.827A248.25 248.25 0 000 256c0 27.511 4.535 53.963 12.898 78.65h277.884v-78.564a9.405 9.405 0 00-1.85-5.602z" fill="#fbb031"/><path d="M147.648 331.148c-23.777-6.787-25.898-33.423-25.898-33.423l-8.453-55.27-.174-1.142-112.38-4.486A248.25 248.25 0 000 256c0 27.511 4.535 53.963 12.898 78.65H150.24c.022-1.531-.94-3.03-2.592-3.502z" fill="#f7991e"/><path d="M262.871 275.661H.786a245.593 245.593 0 001.9 16.675H262.87a8.337 8.337 0 008.337-8.337 8.336 8.336 0 00-8.336-8.338z" fill="#363540"/><path d="M112.727 283.999a8.337 8.337 0 018.337-8.337H.786a245.593 245.593 0 001.9 16.675h118.378a8.338 8.338 0 01-8.337-8.338z" fill="#21212b"/><path d="M278.932 232.273a92.997 92.997 0 01-3.485-2.099c-65.003-41.16-122.853-65.733-154.747-65.733-6.065 0-12.514.101-19.243.298l-.294 37.492 11.96 39.083-1.471 1.076 134.371 5.364a55.553 55.553 0 0033.117-9.344c2.227-1.492 2.119-4.805-.208-6.137z" fill="#363540"/><path d="M56.086 240.171l.894-34.052-11.767-37.322a641.166 641.166 0 00-30.841 4.369A243.778 243.778 0 00.663 237.958z" fill="#21212b"/><path d="M72.772 166.186l11.443 75.108 29.082 1.161-11.84-77.716c-2.628.077-5.295.167-8.004.273-6.894.271-13.789.674-20.681 1.174z" fill="#5f5e6a"/><path d="M56.086 240.171l28.128 1.123-11.443-75.108a630.169 630.169 0 00-27.56 2.608z" fill="#4b4a55"/><path d="M278.932 232.273a91.699 91.699 0 01-3.485-2.1c-13.906-8.805-27.48-16.844-40.548-24.053.01.031 8.623 27.844-14.708 40.601l25.831 1.031a55.553 55.553 0 0033.117-9.344c2.228-1.49 2.12-4.803-.207-6.135z" fill="#21212b"/><path d="M238.059 226.637h-18.727c-5.13 0-9.328 4.198-9.328 9.328v30.367c0 5.131 4.198 9.328 9.328 9.328h18.727c11.586 0 21.065-9.479 21.065-21.065V247.7c0-11.583-9.479-21.063-21.065-21.063z" fill="#eeefeb"/><path d="M225.909 254.597v-6.895c0-10.056 7.145-18.516 16.607-20.576a20.876 20.876 0 00-4.458-.489h-18.727c-5.13 0-9.328 4.198-9.328 9.328v30.367c0 5.131 4.198 9.328 9.328 9.328h18.727c1.53 0 3.019-.175 4.458-.488-9.462-2.06-16.607-10.519-16.607-20.575z" fill="#d6d6d0"/><path d="M376.907 258.085c-40.991 0-74.341 33.35-74.341 74.341 0 .745.035 1.483.056 2.223h14.538c-.027-.739-.056-1.477-.056-2.223 0-32.976 26.828-59.804 59.804-59.804s59.803 26.828 59.803 59.804a59.512 59.512 0 01-3.804 20.972h4.803c3.541 0 7.079-.128 10.608-.355a74.075 74.075 0 002.931-20.617c0-40.991-33.35-74.341-74.342-74.341z" fill="#f7991e"/><path d="M12.174 332.427a243.382 243.382 0 0011.311 28.346h300.778a59.423 59.423 0 01-7.159-28.346z" fill="#f7991e"/><path d="M149.387 336.899c1.159-1.346 1.089-3.203.131-4.473H12.174a243.382 243.382 0 0011.311 28.346H154.25c-13.803-9.174-9.461-18.535-4.863-23.873z" fill="#ed8718"/><path d="M376.907 393.897c-33.895 0-61.471-27.576-61.471-61.471s27.576-61.471 61.471-61.471 61.471 27.576 61.471 61.471-27.576 61.471-61.471 61.471z" fill="#21212b"/><path d="M416.832 379.11c-11.014-1.591-12.125-8.257-11.637-12.531a4.311 4.311 0 00-2.806-4.543c-4.507-1.635-5.82-4.811-6.147-7.106-.239-1.679-1.458-3.026-3.088-3.494-28.02-8.041-27.184-32.393-25.785-41.615.287-1.892-.668-3.802-2.405-4.604-4.588-2.116-4.737-5.859-4.07-8.6a4.309 4.309 0 00-2.157-4.819c-6.292-3.353-6.512-8.84-5.808-12.453a4.333 4.333 0 00-.645-3.226c-21.669 9.513-36.847 31.165-36.847 56.307 0 33.895 27.576 61.471 61.471 61.471 15.23 0 29.174-5.58 39.924-14.787z"/><circle cx="376.907" cy="332.426" fill="#d6d6d0" r="34.701"/><path d="M398.468 359.586c-1.451-1.511-2.027-3.249-2.227-4.656-.239-1.679-1.458-3.026-3.088-3.494-28.02-8.041-27.184-32.393-25.785-41.615.287-1.892-.668-3.802-2.405-4.604-2.099-.968-3.262-2.278-3.85-3.675-11.213 5.758-18.908 17.435-18.908 30.883 0 19.134 15.567 34.701 34.701 34.701 8.145.002 15.636-2.825 21.562-7.54z" fill="#c6c6c1"/><path d="M376.907 374.392c-23.14 0-41.965-18.826-41.965-41.965 0-23.14 18.826-41.965 41.965-41.965 23.14 0 41.965 18.825 41.965 41.965.001 23.139-18.825 41.965-41.965 41.965zm0-69.403c-15.129 0-27.438 12.308-27.438 27.438 0 15.129 12.308 27.438 27.438 27.438 15.129 0 27.438-12.308 27.438-27.438s-12.308-27.438-27.438-27.438z" fill="#eeefeb"/><path d="M404.62 363.901a4.279 4.279 0 00-2.232-1.865c-4.507-1.635-5.82-4.811-6.147-7.106a4.185 4.185 0 00-.972-2.136c-4.866 4.391-11.307 7.069-18.362 7.069-15.129 0-27.438-12.308-27.438-27.438 0-11.564 7.194-21.472 17.339-25.503a4.15 4.15 0 00-1.845-1.704c-4.588-2.116-4.737-5.859-4.07-8.6a4.293 4.293 0 00-.297-2.857c-15.061 6.378-25.654 21.307-25.654 38.665 0 23.14 18.826 41.965 41.965 41.965 10.615.001 20.314-3.969 27.713-10.49z" fill="#d6d6d0"/></svg><svg viewBox="0 0 512 512" id="truck" xmlns="http://www.w3.org/2000/svg"><path d="M64.3 378.622l-4.217 38.085C104.999 468.349 171.184 501 245 501c90.632 0 169.763-49.217 212.143-122.378z" fill="#74727f"/><path d="M199.71 378.622c74.963 0 82.001 106.101 15.223 120.528A247.184 247.184 0 00245 501c90.632 0 169.763-49.217 212.143-122.378z" fill="#5f5e6a"/><path d="M245 11c-54.387 0-104.626 17.732-145.275 47.716L64.3 378.622h392.843C478.035 342.557 490 300.677 490 256c0-135.31-109.69-245-245-245z" fill="#ffc743"/><path d="M0 256c0 10.284.643 20.418 1.873 30.37h197.881V66.976c0-5-4.053-9.053-9.053-9.053h-89.889C39.714 102.475 0 174.594 0 256z" fill="#eeefeb"/><path d="M70.035 268.444V84.902c0-.128.008-.253.01-.38C26.723 128.71 0 189.229 0 256c0 10.284.643 20.418 1.873 30.37h86.089c-9.901 0-17.927-8.026-17.927-17.926z" fill="#d6d6d0"/><path d="M44.222 284.004c14.386 0 26.74 9.236 30.042 22.459l19.87 79.618h105.62V284.004z" fill="#363540"/><path d="M141.049 284.004c6.281 0 11.372 5.091 11.372 11.372v79.333c0 6.281-5.092 11.372-11.372 11.372h58.706V284.004z" fill="#21212b"/><path d="M81.396 335.043l12.738 53.378h105.62v-53.378z" fill="#21212b"/><path d="M152.421 374.71c0 6.281-5.092 11.372-11.372 11.372h58.706v-51.039h-47.333v39.667zM326.331 312.041h116.698v26.409H326.331z"/><path d="M385.292 454.077c-39.159 0-71.018-31.859-71.018-71.018s31.859-71.018 71.018-71.018 71.018 31.859 71.018 71.018-31.859 71.018-71.018 71.018zm0-111.109c-22.106 0-40.091 17.985-40.091 40.091s17.985 40.091 40.091 40.091 40.091-17.985 40.091-40.091-17.985-40.091-40.091-40.091z" fill="#21212b"/><path d="M385.292 454.077c-39.159 0-71.018-31.859-71.018-71.018s31.859-71.018 71.018-71.018 71.018 31.859 71.018 71.018-31.859 71.018-71.018 71.018zm0-111.109c-22.106 0-40.091 17.985-40.091 40.091s17.985 40.091 40.091 40.091 40.091-17.985 40.091-40.091-17.985-40.091-40.091-40.091z" fill="#21212b"/><path d="M425.371 441.647c-12.974-1.129-14.632-9.136-14.471-13.799.066-1.92-1.046-3.641-2.768-4.491-2.365-1.168-3.83-2.801-4.723-4.552a39.834 39.834 0 01-18.116 4.345c-22.106 0-40.091-17.985-40.091-40.091 0-16.22 9.688-30.211 23.577-36.517-.88-2.315-.658-4.682-.189-6.509.503-1.961-.303-4.008-1.98-5.142-11.304-7.65-4.802-18.495-4.534-18.932-27.788 9.644-47.8 36.071-47.8 67.1 0 39.159 31.859 71.018 71.018 71.018 14.858 0 28.661-4.596 40.077-12.43z"/><circle cx="385.292" cy="383.059" fill="#d6d6d0" transform="rotate(-67.48 385.432 382.971)" r="40.091"/><path d="M403.408 418.805c-1.215-2.382-1.364-4.981-1.221-6.929a4.817 4.817 0 00-2.5-4.589c-27.727-15.179-25.726-41.145-23.924-50.592a4.736 4.736 0 00-2.279-4.981c-2.583-1.485-4-3.312-4.706-5.172-13.888 6.306-23.577 20.297-23.577 36.517 0 22.106 17.985 40.091 40.091 40.091 6.517 0 12.67-1.573 18.116-4.345z" fill="#c6c6c1"/><path d="M385.292 432.021c-26.998 0-48.962-21.964-48.962-48.961s21.964-48.961 48.962-48.961c26.997 0 48.961 21.964 48.961 48.961s-21.964 48.961-48.961 48.961zm0-80.182c-17.215 0-31.221 14.005-31.221 31.22s14.006 31.22 31.221 31.22 31.22-14.005 31.22-31.22-14.006-31.22-31.22-31.22z" fill="#eeefeb"/><path d="M410.183 425.197a5.05 5.05 0 00-2.052-1.84c-5.582-2.757-6.193-8.101-5.945-11.481a4.802 4.802 0 00-.416-2.318 31.023 31.023 0 01-16.48 4.721c-17.215 0-31.22-14.005-31.22-31.22 0-13.696 8.869-25.352 21.163-29.548a4.676 4.676 0 00-1.75-1.796c-5.798-3.334-5.74-8.386-4.896-11.681a4.713 4.713 0 00-.195-2.928c-18.695 6.897-32.063 24.893-32.063 45.953 0 26.997 21.964 48.961 48.962 48.961a48.644 48.644 0 0024.892-6.823z" fill="#d6d6d0"/><path d="M500.519 253.642l-16.562-13.398a30.942 30.942 0 00-19.457-6.885h-75.318a30.512 30.512 0 01-22.901-10.349l-57.275-75.4a30.513 30.513 0 00-22.901-10.349h-76.624c-6.678 0-12.092 5.414-12.092 12.092V389.63h92.87l19.219-79.617c3.191-13.224 15.14-22.461 29.056-22.461h93.517c13.916 0 25.865 9.237 29.056 22.462l12.829 49.598h12.045c5.596 0 10.512 2.884 13.363 7.242L512 345.129v-67.434a30.937 30.937 0 00-11.481-24.053z" fill="#319df5"/><path d="M257.709 137.261H209.48c-6.678 0-12.092 5.414-12.092 12.092V389.63h60.32V168.464l-.111-.128c-7.728-8.933-7.68-22.198.112-31.075z" fill="#0c88ed"/><path d="M485.979 391.547h-21.068c-8.819 0-15.967-7.148-15.967-15.967s7.148-15.967 15.967-15.967h21.068c8.819 0 15.967 7.149 15.967 15.967.001 8.818-7.148 15.967-15.967 15.967z" fill="#5f5e6a"/><path d="M512 290.716v-13.021a30.933 30.933 0 00-4.8-16.541h-18.123c-8.136 0-13.455 8.527-9.878 15.833l3.704 7.566a10.998 10.998 0 009.878 6.162H512z" fill="#eeefeb"/><path d="M501.633 284.553l-3.704-7.566c-3.489-7.128 1.495-15.393 9.293-15.795-.008-.012-.014-.026-.023-.038h-18.123c-8.136 0-13.455 8.527-9.878 15.833l3.704 7.566a10.998 10.998 0 009.878 6.162h18.73a10.994 10.994 0 01-9.877-6.162z" fill="#d6d6d0"/><path d="M248.838 272.39h-14.587a8.87 8.87 0 01-8.871-8.871 8.87 8.87 0 018.871-8.871h14.587a8.871 8.871 0 010 17.742z" fill="#56b1fc"/><path d="M291.07 168.464h-52.163a8.204 8.204 0 00-8.204 8.204v48.489a8.204 8.204 0 008.204 8.204h94.449c4.546 0 7.128-5.203 4.378-8.823l-40.131-52.831a8.202 8.202 0 00-6.533-3.243z" fill="#363540"/><path d="M257.709 168.464h-18.803a8.204 8.204 0 00-8.204 8.204v48.489a8.204 8.204 0 008.204 8.204h18.803zM292.009 233.359h41.346c4.546 0 7.128-5.203 4.378-8.823l-19.609-25.815s5.227 25.514-26.115 34.638z" fill="#21212b"/><path d="M357.78 211.718h-16.534c-4.53 0-8.236 3.706-8.236 8.236v26.811c0 4.53 3.706 8.236 8.236 8.236h16.534c10.229 0 18.598-8.369 18.598-18.598v-6.087c0-10.229-8.369-18.598-18.598-18.598z" fill="#eeefeb"/><path d="M348.138 236.403v-6.087c0-8.683 6.04-16.006 14.12-18.026a18.395 18.395 0 00-4.478-.572h-16.534c-4.53 0-8.236 3.706-8.236 8.236v26.811c0 4.53 3.706 8.236 8.236 8.236h16.534c1.545 0 3.04-.212 4.478-.572-8.08-2.02-14.12-9.343-14.12-18.026z" fill="#d6d6d0"/><path d="M6.447 312.041c1.941 8.296 4.329 16.418 7.091 24.366l1.057 2.044h43.384v-26.409H6.447z" fill="#5f5e6a"/><path d="M6.545 312.444a242.567 242.567 0 006.956 23.892l6.513 12.594c11.446 7.066 19.094 19.719 19.094 34.13 0 .88-.032 1.753-.091 2.618l6.49 12.55a247.262 247.262 0 0015.464 19.49 70.559 70.559 0 009.064-34.658c0-36.617-27.857-66.844-63.49-70.616z"/><path d="M13.471 336.277a244.271 244.271 0 0032.069 62.015 48.748 48.748 0 002.439-15.233c0-21.968-14.544-40.601-34.508-46.782z" fill="#eeefeb"/><path d="M78.38 306.465c-3.191-13.224-15.14-22.461-29.056-22.461H1.602a244.001 244.001 0 005.796 31.934h40.417l21.69 89.858c1.765 7.313 8.303 12.224 15.508 12.224 1.241 0 2.5-.146 3.76-.449 8.572-2.069 13.844-10.696 11.774-19.268z" fill="#4b4a55"/><path d="M299.282 418.017H85.027c-8.819 0-15.967-7.149-15.967-15.967 0-8.819 7.148-15.967 15.967-15.967h214.254c8.819 0 15.967 7.148 15.967 15.967.001 8.818-7.148 15.967-15.966 15.967z" fill="#4b4a55"/><path d="M299.282 386.082h-44.333c8.819 0 15.967 7.148 15.967 15.967s-7.148 15.967-15.967 15.967h44.333c8.819 0 15.967-7.149 15.967-15.967s-7.148-15.967-15.967-15.967z" fill="#363540"/><path d="M299.294 418.02c-1.241 0-2.499-.146-3.76-.449-8.572-2.069-13.844-10.695-11.774-19.268l22.168-91.837c3.191-13.224 15.14-22.461 29.056-22.461h100.613c13.916 0 25.865 9.237 29.056 22.462l15.779 65.367c2.07 8.573-3.203 17.199-11.774 19.268-8.574 2.066-17.199-3.203-19.268-11.774l-15.301-63.388h-97.597l-21.69 89.858c-1.764 7.311-8.302 12.222-15.508 12.222z" fill="#4b4a55"/><g fill="#363540"><path d="M334.985 284.004c-13.916 0-25.865 9.237-29.056 22.461l-22.168 91.837c-2.07 8.573 3.203 17.2 11.774 19.268 1.26.304 2.519.449 3.759.449 7.205 0 13.744-4.911 15.509-12.224l21.69-89.858c-20.535-14.227-1.508-31.933-1.508-31.933zM67.916 290.311c-5.133-3.983-11.614-6.307-18.592-6.307H1.602a244.001 244.001 0 005.796 31.934h40.417c-3.293-25.041 20.063-25.626 20.101-25.627z"/></g></svg><svg viewBox="0 0 512 512" id="van" xmlns="http://www.w3.org/2000/svg"><path d="M454.283 383.438C476.941 346.308 490 302.68 490 256c0-135.31-109.69-245-245-245-69.574 0-132.37 29.004-176.968 75.576L44.379 383.438z" fill="#67e5ee"/><path d="M44.379 383.438l-.944 11.843C87.655 459.152 161.434 501 245 501c88.63 0 166.264-47.065 209.283-117.563H44.379z" fill="#74727f"/><path d="M197.307 383.438c71.569 0 78.663 100.621 15.856 115.506A247.189 247.189 0 00245 501c88.63 0 166.264-47.065 209.283-117.563H197.307z" fill="#5f5e6a"/><path d="M38.301 124.422a243.606 243.606 0 00-31.74 75.07h456.593a259.79 259.79 0 00-29.933-45.789l-23.903-29.281z" fill="#4b4a55"/><path d="M302.8 188.665c-2.491-1.469-5.688-4.485-5.688-10.283v-37s.022-4.504 4.106-6.474c1.542-.744 2.072-2.714.946-4.003-1.45-1.659-2.801-3.896-2.839-6.483H38.301a243.606 243.606 0 00-31.74 75.07h294.472c.012-2.154.683-4.564 2.55-7.133.881-1.213.508-2.933-.783-3.694z" fill="#363540"/><path d="M6.561 199.492a244.22 244.22 0 00-5.242 30.987h370.865c55.484 0 102.629 35.685 119.751 85.353h.148l-.739-12.794a259.844 259.844 0 00-28.189-103.546z" fill="#eeefeb"/><path d="M405.036 199.492H241.33v162.592h181.284v-99.197a123.222 123.222 0 00-17.578-63.395z" fill="#d6d6d0"/><path d="M343.461 320.215c-44.234-1.5-47.788-25.211-47.788-25.211v-67.08c0-17.791 10.02-18.852 10.02-18.852l-6.837-9.58H241.33v162.592h119.347z" fill="#c6c6c1"/><path d="M354.465 85.461H69.12a246.166 246.166 0 00-25.269 30.658h365.466l-6.166-7.553a62.845 62.845 0 00-48.686-23.105z" fill="#eeefeb"/><path d="M305.693 113.543V97.882s-.08-12.421 9.92-12.421H69.12a246.166 246.166 0 00-25.269 30.658h260.175c.221-.185.45-.37.689-.556a2.55 2.55 0 00.978-2.02z" fill="#d6d6d0"/><path d="M491.935 313.277c-17.122-49.668-64.266-85.353-119.751-85.353H1.611A247.39 247.39 0 000 256c0 38.003 8.654 73.985 24.097 106.084h470.658z" fill="#af7fdf"/><path d="M422.613 262.886c0-8.66-.926-17.252-2.715-25.645-14.728-5.997-30.831-9.318-47.714-9.318H241.33v134.16h181.284v-99.197z" fill="#9f66d8"/><path d="M343.461 320.215c-44.234-1.5-47.788-25.211-47.788-25.211v-67.08H241.33v134.16h119.347z" fill="#9945db"/><ellipse cx="459.505" cy="310.022" fill="#eeefeb" rx="18.38" ry="29.235"/><path d="M461.105 310.022c0-10.285 3.342-19.323 8.39-24.534-2.877-2.97-6.305-4.701-9.99-4.701-10.151 0-18.38 13.089-18.38 29.235s8.229 29.234 18.38 29.234c3.685 0 7.114-1.731 9.99-4.701-5.048-5.21-8.39-14.248-8.39-24.533z" fill="#d6d6d0"/><path d="M295.745 272.389h-17.699c-5.291 0-9.581-4.289-9.581-9.581s4.289-9.581 9.581-9.581h17.699c5.291 0 9.581 4.289 9.581 9.581s-4.29 9.581-9.581 9.581z" fill="#af7fdf"/><path d="M24.097 362.084a244.7 244.7 0 0020.235 34.49h234.921a65.214 65.214 0 01-1.208-12.455 64.833 64.833 0 013.844-22.035z" fill="#eeefeb"/><path d="M281.889 362.084h-44.583c9.101 0 16.341 7.733 15.614 16.805a65.57 65.57 0 00-.209 5.23c.007 6.85-5.592 12.455-12.443 12.455h38.984a65.214 65.214 0 01-1.208-12.455 64.858 64.858 0 013.845-22.035z" fill="#d6d6d0"/><path d="M494.755 362.084h-90.269a64.833 64.833 0 013.844 22.035c0 4.26-.424 8.421-1.208 12.455h87.633c9.525 0 17.245-7.721 17.245-17.245s-7.721-17.245-17.245-17.245z" fill="#eeefeb"/><path d="M469.086 396.574c-7.516-2.141-13.025-9.042-13.025-17.245s5.509-15.105 13.025-17.245h-64.601a64.833 64.833 0 013.844 22.035c0 4.26-.424 8.421-1.208 12.455z" fill="#d6d6d0"/><path d="M426.909 362.084c-9.782-36.942-43.429-64.177-83.448-64.177s-73.666 27.235-83.448 64.177z" fill="#af7fdf"/><path d="M328.977 356.488c-5.518-2.917-5.656-7.883-4.92-11.321a4.579 4.579 0 00-2.46-5.09c-5.888-2.918-6.478-8.467-6.082-12.248.222-2.12-.999-4.145-3.02-4.823-7.256-2.437-8.112-8.208-7.725-12.212a4.68 4.68 0 00-.908-3.266c-21.383 11.065-37.557 30.795-43.849 54.557h71.14c.041-.317.084-.62.127-.908.286-1.895-.609-3.793-2.303-4.689z" fill="#9f66d8"/><path d="M343.188 317.7c-36.623 0-66.419 29.796-66.419 66.419s29.796 66.419 66.419 66.419 66.42-29.796 66.42-66.419-29.797-66.419-66.42-66.419zm0 103.915c-20.674 0-37.495-16.82-37.495-37.495s16.82-37.495 37.495-37.495 37.495 16.82 37.495 37.495-16.821 37.495-37.495 37.495z" fill="#21212b"/><path d="M390.766 430.398c-10.771-.006-13.516-6.103-14.144-10.204-.314-2.052-1.941-3.612-3.999-3.879-3.071-.398-5.226-1.276-6.735-2.379-6.306 4.813-14.173 7.679-22.7 7.679-20.674 0-37.495-16.82-37.495-37.495 0-13.836 7.539-25.936 18.719-32.434-.898-2.236-.763-4.612-.355-6.519a4.579 4.579 0 00-2.46-5.09c-5.888-2.918-6.478-8.467-6.082-12.248a4.651 4.651 0 00-1.118-3.558c-22.245 10.745-37.628 33.534-37.628 59.848 0 36.624 29.796 66.419 66.419 66.419 18.641.001 35.503-7.729 47.578-20.14z"/><circle cx="343.188" cy="384.12" fill="#d6d6d0" transform="rotate(-13.59 341.916 383.665)" r="37.495"/><path d="M362.564 407.888c-.141-1.931-1.41-3.608-3.278-4.116-30.196-8.204-29.403-33.325-28.006-42.596.285-1.894-.61-3.792-2.303-4.688-2.458-1.299-3.844-3.006-4.565-4.802-11.18 6.497-18.719 18.598-18.719 32.434 0 20.675 16.82 37.495 37.495 37.495 8.527 0 16.394-2.867 22.7-7.679-2.437-1.779-3.184-4.146-3.324-6.048z" fill="#c6c6c1"/><path d="M343.188 430.398c-25.518 0-46.279-20.761-46.279-46.279s20.761-46.279 46.279-46.279 46.278 20.76 46.278 46.279-20.76 46.279-46.278 46.279zm0-74.989c-15.832 0-28.711 12.88-28.711 28.711s12.88 28.711 28.711 28.711 28.711-12.88 28.711-28.711c-.001-15.832-12.88-28.711-28.711-28.711z" fill="#eeefeb"/><path d="M372.622 416.314c-8.026-1.042-9.832-5.346-10.058-8.426a4.803 4.803 0 00-.629-2.051c-5.034 4.352-11.586 6.993-18.747 6.993-15.832 0-28.711-12.879-28.711-28.71 0-11.378 6.652-21.23 16.271-25.874a4.352 4.352 0 00-1.771-1.758c-5.518-2.917-5.656-7.883-4.92-11.321a4.586 4.586 0 00-.37-3.002c-15.798 7.373-26.778 23.402-26.778 41.955 0 25.518 20.761 46.278 46.279 46.278 12.405 0 23.677-4.916 31.995-12.89a4.668 4.668 0 00-2.561-1.194z" fill="#d6d6d0"/><path d="M463.154 189.911h-52.741l-34.501-55.908h33.406a9.58 9.58 0 100-19.161H44.738h258.591a2.476 2.476 0 01-.612.722c-8.041 6.232-5.494 11.973-2.552 15.341.803.919.752 2.178.105 3.098h53.127l34.501 55.908h-86.03a2.527 2.527 0 01-.284 2.447c-5.275 7.258-1.121 13.293 1.026 15.651.281.308.461.677.568 1.063h159.976c5.291 0 9.581-4.289 9.581-9.58-.001-5.292-4.29-9.581-9.581-9.581z" fill="#74727f"/><path d="M304.61 208.009c-2.147-2.358-6.301-8.393-1.026-15.651a2.527 2.527 0 00.284-2.447H250.91v-55.908h51.359c.647-.92.698-2.179-.105-3.098-2.942-3.368-5.489-9.109 2.552-15.341.255-.198.453-.449.612-.722H44.737a245.107 245.107 0 00-12.25 19.161h31.865v55.908H9.028a243.417 243.417 0 00-4.52 19.161h300.669a2.567 2.567 0 00-.567-1.063zm-156.559-18.098H83.514v-55.908h64.537zm83.698 0h-64.537v-55.908h64.537z" fill="#4b4a55"/></svg><svg fill="none" viewBox="0 0 50 50" id="workingHours" xmlns="http://www.w3.org/2000/svg"><path d="M40.625 50H9.375A9.374 9.374 0 010 40.625V9.375A9.374 9.374 0 019.375 0h31.25A9.374 9.374 0 0150 9.375v31.25A9.374 9.374 0 0140.625 50z" fill="#FFE6E2"/><path d="M33.333 25c0-2.105-.791-4.025-2.083-5.494v-5.183a1.824 1.824 0 00-1.823-1.823h-8.855a1.824 1.824 0 00-1.822 1.823v5.185a8.29 8.29 0 00-2.083 5.494 8.29 8.29 0 002.083 5.494v5.184c0 1.003.817 1.82 1.823 1.82h8.855a1.824 1.824 0 001.822-1.823v-5.185A8.286 8.286 0 0033.333 25zM25 18.75A6.256 6.256 0 0131.25 25 6.256 6.256 0 0125 31.25 6.256 6.256 0 0118.75 25 6.256 6.256 0 0125 18.75z" fill="#FC573B"/><path d="M26.608 28.08a1.037 1.037 0 001.472 0 1.043 1.043 0 000-1.474l-2.04-2.039v-3.473a1.042 1.042 0 10-2.084 0V25c0 .276.11.54.305.736l2.347 2.343z" fill="#FD907E"/></svg></svg>